<?xml version="1.0" encoding="UTF-8" standalone="no"?>
<!DOCTYPE svg PUBLIC "-//W3C//DTD SVG 1.1//EN" "http://www.w3.org/Graphics/SVG/1.1/DTD/svg11.dtd">
<svg version="1.1" xmlns="http://www.w3.org/2000/svg" xmlns:xlink="http://www.w3.org/1999/xlink" preserveAspectRatio="xMidYMid meet" viewBox="0 0 640 640" width="640" height="640"><defs><path d="M0 0L640 0L640 640L0 640L0 0Z" id="c3XJBK9jVJ"></path><path d="M465.73 342.58C388.96 415.7 346.31 456.33 337.78 464.45C331.08 470.83 330.82 481.44 337.2 488.14C343.57 494.83 354.17 495.1 360.88 488.71C375.49 474.79 492.4 363.44 507.01 349.52C513.33 343.19 516.82 334.78 516.82 325.83C516.82 316.89 513.33 308.47 506.72 301.86C492.13 287.97 375.46 176.85 360.87 162.96C357.63 159.86 353.48 158.33 349.32 158.33C344.9 158.33 340.48 160.07 337.19 163.53C330.81 170.23 331.07 180.83 337.77 187.21C346.33 195.33 389.16 235.96 466.26 309.08C265.45 309.08 153.89 309.08 131.57 309.08C122.33 309.08 114.82 316.58 114.82 325.83C114.82 335.08 122.33 342.58 131.57 342.58C176.13 342.58 287.51 342.58 465.73 342.58Z" id="c18mNhONis"></path></defs><g><g><g><use xlink:href="#c3XJBK9jVJ" opacity="1" fill="#405eed" fill-opacity="1"></use></g><g><use xlink:href="#c18mNhONis" opacity="1" fill="#ffffff" fill-opacity="1"></use><g><use xlink:href="#c18mNhONis" opacity="1" fill-opacity="0" stroke="#000000" stroke-width="1" stroke-opacity="0"></use></g></g></g></g></svg>