<?xml version="1.0" encoding="UTF-8" standalone="no"?>
<!DOCTYPE svg PUBLIC "-//W3C//DTD SVG 1.1//EN" "http://www.w3.org/Graphics/SVG/1.1/DTD/svg11.dtd">
<svg version="1.1" xmlns="http://www.w3.org/2000/svg" xmlns:xlink="http://www.w3.org/1999/xlink" preserveAspectRatio="xMidYMid meet" viewBox="0 0 160 160" width="160" height="160"><defs><path d="M24.93 24.87C-16.72 66.39 -0.48 135.32 55.54 154.09C65.26 157.41 67.52 157.68 82.16 157.15C96.26 156.62 99.46 155.95 109.17 152.22C109.92 151.93 113.64 150.47 120.35 147.83C129.93 151.19 135.25 153.05 136.32 153.42C149.49 158.08 152.95 158.75 155.48 157.55C159.74 155.68 159.61 152.49 154.02 132.66C153.71 131.55 152.16 126.01 149.36 116.03C151.44 110.28 152.59 107.09 152.82 106.45C157.35 93.67 158.54 75.31 155.48 62.4C148.7 33.52 124.34 9.83 95.46 3.71C84.02 1.32 74.17 1.32 62.86 3.84C48.89 6.77 35.85 14.09 24.93 24.87ZM144.17 58.54C148.7 71.85 148.56 89.28 143.64 102.99C141.64 108.44 140.05 114.43 140.05 116.29C140.05 118.02 141.78 125.48 143.9 132.8C146.03 140.11 147.5 146.24 147.36 146.5C147.23 146.64 141.91 145.04 135.65 142.78C121.41 137.72 117.82 137.72 105.45 142.91C93.73 147.83 77.63 149.43 65.12 146.9C34.91 140.51 10.96 111.24 10.96 80.36C10.96 52.28 28.93 25.93 54.48 16.35C68.45 11.16 79.36 10.23 92.8 13.03C117.16 18.22 136.19 34.98 144.17 58.54Z" id="a4FhOQD55"></path></defs><g><g><g><use xlink:href="#a4FhOQD55" opacity="1" fill="#000000" fill-opacity="1"></use><g><use xlink:href="#a4FhOQD55" opacity="1" fill-opacity="0" stroke="#000000" stroke-width="1" stroke-opacity="0"></use></g></g></g></g></svg>