<?xml version="1.0"?>
<svg xmlns="http://www.w3.org/2000/svg" xmlns:xlink="http://www.w3.org/1999/xlink" xmlns:svgjs="http://svgjs.com/svgjs" version="1.1" width="512" height="512" x="0" y="0" viewBox="0 0 512 512" style="enable-background:new 0 0 512 512" xml:space="preserve" class=""><g><g xmlns="http://www.w3.org/2000/svg"><path d="m241.294 168.959-21.02 42.041h35.728c7.266 0 13.33 5.171 14.707 12.041l21.02-42.041h-35.728c-7.265 0-13.33-5.171-14.707-12.041z" fill="#ffffff" data-original="#000000" style="" class=""/><path d="m166.002 436c0 41.353 33.647 76 75 76h30c41.353 0 75-34.647 75-76v-15h-180z" fill="#ffffff" data-original="#000000" style="" class=""/><path d="m346.002 376.146c0-23.042 8.892-43.564 24.39-56.338 41.689-34.336 65.61-84.932 65.61-138.809 0-99.258-80.742-181-180-181-101.429 0-180.569 82.517-180 182.04.308 52.734 23.672 102.48 64.087 136.494 16.465 13.872 25.913 34.409 25.913 56.338v16.129h180zm-16.583-203.437-60 120c-3.036 6.088-9.91 9.5-16.86 7.896-6.768-1.597-11.558-7.646-11.558-14.604v-45h-45c-5.2 0-10.02-2.695-12.759-7.119s-2.988-9.946-.659-14.59l60-120c3.091-6.24 10.107-9.478 16.86-7.896 6.768 1.597 11.558 7.646 11.558 14.604v45h45c5.2 0 10.02 2.695 12.759 7.119s2.989 9.946.659 14.59z" fill="#ffffff" data-original="#000000" style="" class=""/></g></g></svg>
