<?xml version="1.0" encoding="UTF-8" standalone="no"?>
<!DOCTYPE svg PUBLIC "-//W3C//DTD SVG 1.1//EN" "http://www.w3.org/Graphics/SVG/1.1/DTD/svg11.dtd">
<svg version="1.1" xmlns="http://www.w3.org/2000/svg" xmlns:xlink="http://www.w3.org/1999/xlink" preserveAspectRatio="xMidYMid meet" viewBox="0 0 465 465" width="465" height="465"><defs><path d="M318.86 259.34C318.86 241.42 318.86 98 318.86 80.08C318.86 36.39 283.45 0.98 239.77 0.98C196.08 0.98 160.67 36.39 160.67 80.08C160.67 98 160.67 241.42 160.67 259.34C160.67 303.03 196.08 338.44 239.77 338.44C283.45 338.44 318.86 303.03 318.86 259.34Z" id="b1egocZgO4"></path><path d="M341.58 209.87C341.58 214.82 341.58 254.39 341.58 259.34C341.58 315.48 295.91 361.15 239.77 361.15C183.62 361.15 137.95 315.48 137.95 259.34C137.95 254.39 137.95 214.82 137.95 209.87C137.95 200.91 130.69 193.65 121.73 193.65C112.77 193.65 105.5 200.91 105.5 209.87C105.5 214.82 105.5 254.39 105.5 259.34C105.5 333.37 165.74 393.6 239.77 393.6C313.8 393.6 374.03 333.37 374.03 259.34C374.03 254.39 374.03 214.82 374.03 209.87C374.03 200.91 366.77 193.65 357.81 193.65C348.84 193.65 341.58 200.91 341.58 209.87Z" id="a1oJ4rDgrM"></path><path d="M223.81 388.14L255.72 388.14C255.72 426.81 255.72 450.98 255.72 460.65C255.72 462.51 254.21 464.02 252.35 464.02C246.64 464.02 232.93 464.02 227.23 464.02C225.34 464.02 223.81 462.49 223.81 460.6C223.81 450.94 223.81 426.78 223.81 388.14Z" id="c50yCwEuM1"></path></defs><g><g><g><use xlink:href="#b1egocZgO4" opacity="1" fill="#405eed" fill-opacity="1"></use></g><g><use xlink:href="#a1oJ4rDgrM" opacity="1" fill="#405eed" fill-opacity="1"></use></g><g><use xlink:href="#c50yCwEuM1" opacity="1" fill="#405eed" fill-opacity="1"></use></g></g></g></svg>