<?xml version="1.0"?>
<svg xmlns="http://www.w3.org/2000/svg" xmlns:xlink="http://www.w3.org/1999/xlink" xmlns:svgjs="http://svgjs.com/svgjs" version="1.1" width="512" height="512" x="0" y="0" viewBox="0 0 612.281 612.281" style="enable-background:new 0 0 512 512" xml:space="preserve" class=""><g transform="matrix(1,2.4492935982947064e-16,-2.4492935982947064e-16,1,1.1368683772161603e-13,-1.1368683772161603e-13)">
<g xmlns="http://www.w3.org/2000/svg">
	<g id="_x37__29_">
		<g>
			<path d="M510.533,26.617C413.372-28.176,289.119,4.341,233.021,99.238l-81.25,137.471L0.142,334.504l158.339,89.288l0,0     c-28.049,47.448-11.403,108.116,37.167,135.513c48.591,27.396,110.708,11.138,138.757-36.311l158.339,89.287l10.894-177.147     l81.25-137.471C640.987,202.765,607.695,81.41,510.533,26.617z M215.967,524.932c-29.15-16.442-39.126-52.834-22.317-81.312     l105.566,59.525C282.387,531.623,245.118,541.373,215.967,524.932z M549.7,277.814l-81.25,137.471l-8.16,132.861L73.233,329.894     l113.726-73.335l81.25-137.471C313.088,43.161,412.473,17.152,490.215,60.99C567.958,104.808,594.579,201.888,549.7,277.814z" fill="#000000" data-original="#000000" style=""/>
		</g>
	</g>
</g>
<g xmlns="http://www.w3.org/2000/svg">
</g>
<g xmlns="http://www.w3.org/2000/svg">
</g>
<g xmlns="http://www.w3.org/2000/svg">
</g>
<g xmlns="http://www.w3.org/2000/svg">
</g>
<g xmlns="http://www.w3.org/2000/svg">
</g>
<g xmlns="http://www.w3.org/2000/svg">
</g>
<g xmlns="http://www.w3.org/2000/svg">
</g>
<g xmlns="http://www.w3.org/2000/svg">
</g>
<g xmlns="http://www.w3.org/2000/svg">
</g>
<g xmlns="http://www.w3.org/2000/svg">
</g>
<g xmlns="http://www.w3.org/2000/svg">
</g>
<g xmlns="http://www.w3.org/2000/svg">
</g>
<g xmlns="http://www.w3.org/2000/svg">
</g>
<g xmlns="http://www.w3.org/2000/svg">
</g>
<g xmlns="http://www.w3.org/2000/svg">
</g>
</g></svg>
