<?xml version="1.0" encoding="UTF-8" standalone="no"?>
<!DOCTYPE svg PUBLIC "-//W3C//DTD SVG 1.1//EN" "http://www.w3.org/Graphics/SVG/1.1/DTD/svg11.dtd">
<svg version="1.1" xmlns="http://www.w3.org/2000/svg" xmlns:xlink="http://www.w3.org/1999/xlink" preserveAspectRatio="xMidYMid meet" viewBox="0 0 640 640" width="640" height="640"><defs><path d="M0 0L640 0L640 640L0 640L0 0Z" id="botmysZpa"></path><path d="M425.44 404.08C451.22 373.07 466.75 333.26 466.75 289.88C466.75 191.25 386.51 111 287.88 111C189.24 111 109 191.25 109 289.88C109 388.51 189.24 468.75 287.88 468.75C331.25 468.75 371.07 453.22 402.07 427.44C412.44 437.81 495.42 520.79 505.79 531.16C509.02 534.39 513.25 536 517.47 536C521.7 536 525.93 534.39 529.16 531.16C535.61 524.71 535.61 514.25 529.16 507.79C508.41 487.05 435.81 414.45 425.44 404.08ZM287.88 144.05C368.29 144.05 433.7 209.47 433.7 289.88C433.7 370.29 368.29 435.7 287.88 435.7C207.47 435.7 142.05 370.29 142.05 289.88C142.05 209.47 207.47 144.05 287.88 144.05Z" id="aUViYNnC"></path></defs><g><g><g><use xlink:href="#botmysZpa" opacity="1" fill="#405eed" fill-opacity="1"></use></g><g><use xlink:href="#aUViYNnC" opacity="1" fill="#ffffff" fill-opacity="1"></use><g><use xlink:href="#aUViYNnC" opacity="1" fill-opacity="0" stroke="#ffffff" stroke-width="1" stroke-opacity="0"></use></g></g></g></g></svg>