<svg xmlns="http://www.w3.org/2000/svg" width="62.709" height="64.058" viewBox="0 0 62.709 64.058">
    <path d="M.003 59.8l.83 1.869 29.8-12.355 5.191.623 1.869 5.71-2.492 2.388a2.993 2.993 0 0 0-.726 3.426l1.038 2.6 17.234-6.748-.944-2.495a2.935 2.935 0 0 0-2.9-1.973h-3.429l-1.871-4.465 4.571-2.28a3.12 3.12 0 0 0 1.557-3.842L43.813 26.37a3.2 3.2 0 0 0-4.049-1.87.1.1 0 0 0-.1.1l-4.361 1.874-.623-1.557 2.388-2.8a12.218 12.218 0 0 0 3.011-6.645l3.011-3.634a5.452 5.452 0 0 0-.727-7.683 8.69 8.69 0 0 0-1.246-.83 5.159 5.159 0 0 0-3.53-.311l-.312-.935A3 3 0 0 0 33.327.207L11.42 8.1a3.039 3.039 0 0 0-1.869 3.945v.1l.519 1.349a5.752 5.752 0 0 0-3.011 7.06 5.905 5.905 0 0 0 4.777 3.846l4.88.519a13.521 13.521 0 0 0 6.748 2.6l3.426.312.623 1.557a3.092 3.092 0 0 0-1.453 2.076l-.727 3.53L.003 45.266l.727 1.973 14.535-5.814 3.53 10.59zm49.731-4.36l.208.623-13.29 5.3-.311-.623a1.439 1.439 0 0 1 .208-1.142l3.53-3.323 4.464-1.453h4.15a1.042 1.042 0 0 1 1.038.619zm-6.541-2.492l-3.74 1.247-1.35-3.945a2.308 2.308 0 0 0 1.661-.312l1.765-.83zm-2.8-26.786a1.03 1.03 0 0 1 1.35.519l.83 2.18-5.087 1.661.617 1.978 5.087-1.661 1.246 3.323-4.879 1.661.623 1.973 4.983-1.666 1.246 3.322-4.776 1.557.623 1.973 4.879-1.661.519 1.349a.916.916 0 0 1-.519 1.246l-8.2 4.049a1.316 1.316 0 0 1-.623.1l-7.06-.831-3.843-11.52.727-3.842a1.1 1.1 0 0 1 .623-.727zm-.11-20.972a3.44 3.44 0 0 1 1.765 4.465 3.638 3.638 0 0 1-.519.83l-1.246 1.557a15.516 15.516 0 0 0-.623-3.011l-1.35-4.049a4.149 4.149 0 0 1 1.973.208zM9.136 20.037a3.576 3.576 0 0 1 1.767-4.465l1.453 3.53a15.041 15.041 0 0 0 2.076 3.53l-2.18-.208a3.473 3.473 0 0 1-3.116-2.387zm14.743 5.5a11.346 11.346 0 0 1-9.552-7.164l-2.7-6.852a1.03 1.03 0 0 1 .519-1.349l21.908-7.889a1.146 1.146 0 0 1 .831 0 1.064 1.064 0 0 1 .519.623l2.284 6.852a11.412 11.412 0 0 1-2.18 11L32.289 24.5l.934 2.492-3.738 1.558-1.038-2.6zm-6.644 15.057l2.388-.934 2.6 7.891 1.973-.623-2.7-8.1 4.153-1.661 3.53 10.486-8.41 3.53zm0 0" data-name="Path 241"/>
    <path d="M51.288 18.168v1.038h2.077v-1.038a5.141 5.141 0 0 1 5.191-5.191v-2.076a5.141 5.141 0 0 1-5.191-5.191V4.671h-2.077v1.038a5.14 5.14 0 0 1-5.191 5.191v2.079a5.141 5.141 0 0 1 5.191 5.189zm1.038-8.721a7.155 7.155 0 0 0 2.492 2.492 7.16 7.16 0 0 0-2.492 2.492 7.161 7.161 0 0 0-2.492-2.492 7.155 7.155 0 0 0 2.492-2.492zm0 0" data-name="Path 242"/>
    <path d="M5.606 38.932v1.038h2.076v-1.038a5.141 5.141 0 0 1 5.191-5.191v-2.076a5.141 5.141 0 0 1-5.191-5.191v-1.038H5.606v1.038a5.14 5.14 0 0 1-5.187 5.191v2.078a5.141 5.141 0 0 1 5.187 5.189zm1.038-8.721a7.154 7.154 0 0 0 2.492 2.492 7.16 7.16 0 0 0-2.492 2.492 7.16 7.16 0 0 0-2.492-2.492 7.154 7.154 0 0 0 2.492-2.492zm0 0" data-name="Path 243"/>
    <path d="M57.518 26.473v-1.038h-2.076v1.038a5.14 5.14 0 0 1-5.191 5.191v2.079a5.141 5.141 0 0 1 5.191 5.191v1.038h2.076v-1.038a5.141 5.141 0 0 1 5.191-5.191v-2.076a5.141 5.141 0 0 1-5.191-5.194zm-1.038 8.722a7.16 7.16 0 0 0-2.492-2.492 7.154 7.154 0 0 0 2.492-2.492 7.154 7.154 0 0 0 2.492 2.492 7.16 7.16 0 0 0-2.493 2.492zm0 0" data-name="Path 244"/>
    <path d="M30.831 18.48l1.453 1.453c5.71-5.71.415-14.431.1-14.743l-1.753 1.142c.1 0 4.773 7.58.2 12.148zm0 0" data-name="Path 245"/>
</svg>
