<svg xmlns="http://www.w3.org/2000/svg" width="34.629" height="35.042" viewBox="0 0 34.629 35.042"><path d="M76.667,0H68.592a.569.569,0,0,0-.612.513.569.569,0,0,0,.612.513h3.281l5.618,4.233V29.783l-2.242,1.689a.457.457,0,0,0-.046.725.7.7,0,0,0,.865.038l1.423-1.072v2.162a.768.768,0,0,1-.825.691H73.705l.2-.152a.457.457,0,0,0,.046-.725.7.7,0,0,0-.865-.038l-1.214.914H53.212l-5.618-4.233V26.764H47.7c.235,0,.469,0,.7-.009l.146,0a1.828,1.828,0,0,0,1.74,1.062,1.7,1.7,0,0,0,1.828-1.532,1.7,1.7,0,0,0-1.828-1.532,1.854,1.854,0,0,0-1.7.974l-.211,0c-.264,0-.524.009-.779.008V21.393H47.7c.235,0,.469,0,.7-.009l.153,0a1.833,1.833,0,0,0,1.734,1.046A1.7,1.7,0,0,0,52.115,20.9a1.7,1.7,0,0,0-1.828-1.532,1.849,1.849,0,0,0-1.71.991l-.2,0c-.264,0-.524.009-.779.008V16.022H47.7c.235,0,.469,0,.7-.009l.16,0a1.837,1.837,0,0,0,1.727,1.029,1.7,1.7,0,0,0,1.828-1.532,1.7,1.7,0,0,0-1.828-1.532,1.844,1.844,0,0,0-1.718,1.007l-.2,0c-.264,0-.524.009-.779.008V10.651H47.7c.235,0,.469,0,.7-.009l.166,0a1.843,1.843,0,0,0,1.72,1.013,1.7,1.7,0,0,0,1.828-1.532A1.7,1.7,0,0,0,50.287,8.59a1.839,1.839,0,0,0-1.725,1.024l-.189,0c-.264,0-.524.009-.779.008V5.259l5.618-4.233H65.718A.569.569,0,0,0,66.33.513.569.569,0,0,0,65.718,0h-17.3a1.908,1.908,0,0,0-2.05,1.717V7.288a3.685,3.685,0,0,0-1.822.741,1.175,1.175,0,0,0-.424,1.2,1.72,1.72,0,0,0,1.16,1.1,5.682,5.682,0,0,0,1.086.247v2.083a3.686,3.686,0,0,0-1.822.741,1.175,1.175,0,0,0-.424,1.2,1.72,1.72,0,0,0,1.16,1.1,5.682,5.682,0,0,0,1.086.247v2.083a3.686,3.686,0,0,0-1.822.741,1.175,1.175,0,0,0-.424,1.2,1.72,1.72,0,0,0,1.16,1.1,5.677,5.677,0,0,0,1.086.247V23.4a3.686,3.686,0,0,0-1.822.741,1.175,1.175,0,0,0-.424,1.2,1.72,1.72,0,0,0,1.16,1.1,5.677,5.677,0,0,0,1.086.247v6.635a1.908,1.908,0,0,0,2.05,1.717H76.667a1.908,1.908,0,0,0,2.05-1.717V1.717A1.908,1.908,0,0,0,76.667,0ZM69.533,12.594h-10.3a.521.521,0,1,0,0,1.027h10.3a1.317,1.317,0,0,0,1.415-1.186V9.373a1.317,1.317,0,0,0-1.415-1.186H55.554a1.317,1.317,0,0,0-1.415,1.186v3.062a1.317,1.317,0,0,0,1.415,1.186h.926a.521.521,0,1,0,0-1.027h-.926a.177.177,0,0,1-.19-.159V9.373a.177.177,0,0,1,.19-.159H69.533a.177.177,0,0,1,.19.159v3.062A.177.177,0,0,1,69.533,12.594ZM50.287,25.779a.513.513,0,1,1-.6.505A.562.562,0,0,1,50.287,25.779Zm0-5.388a.513.513,0,1,1-.6.505A.562.562,0,0,1,50.287,20.391Zm0-5.388a.513.513,0,1,1-.6.505A.562.562,0,0,1,50.287,15Zm0-5.388a.562.562,0,0,1,.6.505.613.613,0,0,1-1.207,0A.562.562,0,0,1,50.287,9.616Zm-2.693-7.9a.768.768,0,0,1,.825-.691h2.962L47.594,3.879ZM46.37,25.648a4.078,4.078,0,0,1-.625-.156.626.626,0,0,1-.423-.365c-.016-.061-.021-.157.117-.28a2.074,2.074,0,0,1,.932-.393Zm0-5.371a4.078,4.078,0,0,1-.625-.156.626.626,0,0,1-.423-.365c-.016-.061-.021-.157.117-.28a2.072,2.072,0,0,1,.932-.393Zm0-5.371a4.078,4.078,0,0,1-.625-.156.626.626,0,0,1-.423-.365c-.016-.061-.021-.157.117-.28a2.072,2.072,0,0,1,.932-.393Zm0-5.371a4.077,4.077,0,0,1-.625-.156.626.626,0,0,1-.423-.364c-.016-.061-.021-.157.117-.28a2.072,2.072,0,0,1,.932-.393Zm2.05,24.482a.768.768,0,0,1-.825-.691V31.163l3.786,2.853ZM77.492,3.879,73.705,1.026h2.962a.768.768,0,0,1,.825.691Z" transform="translate(-44.088 0)"/></svg>