<svg xmlns="http://www.w3.org/2000/svg" width="39.183" height="43" viewBox="0 0 39.183 43"><g transform="translate(-2.854)"><g transform="translate(2.854)"><path d="M22.445,43A19.591,19.591,0,0,0,36.3,9.555a19.459,19.459,0,0,0-9.851-5.329c0-.07.011-.142.011-.213a4.013,4.013,0,1,0-8.026,0c0,.072.007.142.011.214a19.594,19.594,0,0,0-9.85,33.035A19.457,19.457,0,0,0,22.445,43Zm0-41.662A2.677,2.677,0,0,1,25.119,4a19.529,19.529,0,0,0-5.348,0A2.676,2.676,0,0,1,22.445,1.338ZM9.538,10.5A18.121,18.121,0,0,1,21.776,5.171V8.026h1.338V5.171A18.239,18.239,0,0,1,40.683,22.74H37.828v1.338h2.855A18.239,18.239,0,0,1,23.114,41.646V38.792H21.776v2.855A18.239,18.239,0,0,1,4.208,24.078H7.062V22.74H4.208A18.12,18.12,0,0,1,9.538,10.5Z" transform="translate(-2.854)"/><path d="M31.117,34.026l.375-.364,5.351-12.708-.876-.876L23.259,25.429l-.364.375L18.213,37.842l.865.865Zm-.473-1.8-5.95-5.95,10.278-4.328ZM23.77,27.243l5.908,5.908L20.01,36.91Z" transform="translate(-7.941 -6.649)"/></g></g></svg>