<svg xmlns="http://www.w3.org/2000/svg" xmlns:xlink="http://www.w3.org/1999/xlink" width="374" height="374" viewBox="0 0 374 374"><defs><clipPath id="a"><rect width="374" height="374" transform="translate(68 69)"/></clipPath></defs><g transform="translate(-68 -69)" clip-path="url(#a)"><g transform="translate(-402.461 -333.268)"><g transform="translate(603.332 418.967)"><rect width="19.591" height="137.906" transform="translate(0 14.596) rotate(-48.162)" fill="#405eed"/></g><g transform="translate(697.987 417.532)"><rect width="141.427" height="19.59" transform="matrix(0.718, -0.696, 0.696, 0.718, 0, 98.502)" fill="#405eed"/></g><circle cx="16.857" cy="16.857" r="16.857" transform="translate(590.073 405.945)" fill="#405eed"/><circle cx="16.857" cy="16.857" r="16.857" transform="translate(789.407 404.169)" fill="#405eed"/><path d="M756.889,503.676a18.87,18.87,0,0,1,18.849,18.85V658.9a18.87,18.87,0,0,1-18.849,18.849H559.51A18.871,18.871,0,0,1,540.659,658.9V522.526a18.872,18.872,0,0,1,18.851-18.85H756.889m0-47.016H559.51a65.867,65.867,0,0,0-65.867,65.865V658.9a65.867,65.867,0,0,0,65.865,65.865H756.889A65.865,65.865,0,0,0,822.755,658.9V522.526a65.865,65.865,0,0,0-65.865-65.865Z" transform="translate(0 50.339)" fill="#405eed"/><g transform="translate(627.974 583.004)"><path d="M575.594,571.93v-1.683c0-17.854,24.6-25.267,24.6-38.406,0-5.728-5.172-9.938-11.127-9.938a17.624,17.624,0,0,0-8.15,2.359c-4.858,2.527-9.716,2.527-12.694-2.19l-3.763-6.065c-3.132-4.884-3.289-9.094,1.413-12.3a44.737,44.737,0,0,1,26.016-8.253c17.552,0,36.518,11.286,36.518,33.015,0,25.6-23.667,31.5-26.644,44.636l-.47,2.022c-1.1,4.547-3.291,6.065-8.149,6.065h-8.933C578.57,581.2,575.594,577.995,575.594,571.93Zm.627,30.49c0-6.065,2.978-9.266,8.619-9.266h7.523c5.642,0,8.62,3.2,8.62,9.266v6.735c0,6.065-2.978,9.266-8.62,9.266H584.84c-5.642,0-8.619-3.2-8.619-9.266Z" transform="translate(-562.214 -495.458)" fill="#405eed"/></g></g></g></svg>