<svg xmlns="http://www.w3.org/2000/svg" width="270.296" height="114.893" viewBox="0 0 270.296 114.893">
  <g id="Group_441" data-name="Group 441" transform="translate(-493.643 -617.169)">
    <g id="Group_437" data-name="Group 437" transform="translate(527.618 621.752)">
      <rect id="Rectangle_171" data-name="Rectangle 171" width="6.068" height="42.715" transform="matrix(0.667, -0.745, 0.745, 0.667, 0, 4.521)" fill="#fff"/>
    </g>
    <g id="Group_438" data-name="Group 438" transform="translate(556.936 621.308)">
      <rect id="Rectangle_172" data-name="Rectangle 172" width="43.805" height="6.068" transform="translate(0 30.51) rotate(-44.145)" fill="#fff"/>
    </g>
    <circle id="Ellipse_20" data-name="Ellipse 20" cx="5.221" cy="5.221" r="5.221" transform="translate(523.511 617.719)" fill="#fff"/>
    <circle id="Ellipse_21" data-name="Ellipse 21" cx="5.221" cy="5.221" r="5.221" transform="translate(585.252 617.169)" fill="#fff"/>
    <path id="Path_282" data-name="Path 282" d="M575.18,684.223a5.845,5.845,0,0,1,5.838,5.838V732.3a5.845,5.845,0,0,1-5.838,5.838H514.045a5.845,5.845,0,0,1-5.839-5.838v-42.24a5.845,5.845,0,0,1,5.839-5.838H575.18m0-14.563H514.045a20.4,20.4,0,0,0-20.4,20.4V732.3a20.4,20.4,0,0,0,20.4,20.4H575.18a20.4,20.4,0,0,0,20.4-20.4v-42.24a20.4,20.4,0,0,0-20.4-20.4Z" transform="translate(0 -20.641)" fill="#fff"/>
    <g id="Group_439" data-name="Group 439" transform="translate(612.251 671.642)">
      <path id="Path_283" data-name="Path 283" d="M689.115,710.965a2.643,2.643,0,0,1,2.957-2.957h17.638a2.643,2.643,0,0,1,2.957,2.957v2.151a2.643,2.643,0,0,1-2.957,2.957H698.526v8.066h8.765a2.643,2.643,0,0,1,2.957,2.957v2.151a2.643,2.643,0,0,1-2.957,2.957h-8.765V743.5a2.643,2.643,0,0,1-2.957,2.957h-3.5a2.643,2.643,0,0,1-2.957-2.957Z" transform="translate(-689.115 -707.362)" fill="#fff"/>
      <path id="Path_284" data-name="Path 284" d="M737.766,710.965a2.643,2.643,0,0,1,2.957-2.957h3.5a2.643,2.643,0,0,1,2.957,2.957v27.425h12.745a2.643,2.643,0,0,1,2.957,2.957V743.5a2.643,2.643,0,0,1-2.957,2.957h-19.2a2.643,2.643,0,0,1-2.957-2.957Z" transform="translate(-708.246 -707.362)" fill="#fff"/>
      <path id="Path_285" data-name="Path 285" d="M787.745,710.965a2.643,2.643,0,0,1,2.957-2.957h3.5a2.643,2.643,0,0,1,2.957,2.957V743.5a2.643,2.643,0,0,1-2.957,2.957h-3.5a2.643,2.643,0,0,1-2.957-2.957Z" transform="translate(-727.899 -707.362)" fill="#fff"/>
      <path id="Path_286" data-name="Path 286" d="M817.7,710.965a2.643,2.643,0,0,1,2.957-2.957H831.84c7.69,0,13.067,3.442,13.067,10.055a9.389,9.389,0,0,1-4.463,8.174v.108c4.409,1.343,6.022,5.269,6.022,8.657,0,8.389-6.99,11.454-14.626,11.454H820.654A2.643,2.643,0,0,1,817.7,743.5Zm14.25,11.938a3.252,3.252,0,0,0,3.388-3.55c0-1.775-1.022-3.28-3.55-3.28h-4.678v6.83Zm.807,15.487a3.82,3.82,0,0,0,4.087-4.033,3.7,3.7,0,0,0-4.033-3.926h-5.7v7.959Z" transform="translate(-739.677 -707.362)" fill="#fff"/>
      <path id="Path_287" data-name="Path 287" d="M892.928,706.944c11.938,0,20.112,8.6,20.112,19.627,0,11.293-8.173,20.112-20.112,20.112s-20.112-8.82-20.112-20.112C872.816,715.548,880.99,706.944,892.928,706.944Zm0,31.135c6.077,0,10.378-4.947,10.378-11.508,0-6.291-4.3-11.023-10.378-11.023s-10.378,4.732-10.378,11.023C882.549,733.132,886.851,738.079,892.928,738.079Z" transform="translate(-761.351 -706.944)" fill="#fff"/>
    </g>
    <g id="Group_440" data-name="Group 440" transform="translate(535.25 672.561)">
      <path id="Path_288" data-name="Path 288" d="M566.358,732.144v-.521c0-5.53,7.621-7.826,7.621-11.9a3.266,3.266,0,0,0-3.447-3.078,5.458,5.458,0,0,0-2.524.731c-1.5.783-3.01.783-3.932-.678l-1.166-1.879c-.97-1.513-1.019-2.817.438-3.808a13.856,13.856,0,0,1,8.058-2.556c5.437,0,11.311,3.5,11.311,10.226,0,7.93-7.33,9.756-8.253,13.825l-.146.626c-.34,1.408-1.019,1.879-2.524,1.879h-2.767C567.28,735.014,566.358,734.023,566.358,732.144Zm.194,9.444c0-1.879.922-2.87,2.67-2.87h2.33c1.747,0,2.67.991,2.67,2.87v2.086c0,1.879-.922,2.87-2.67,2.87h-2.33c-1.747,0-2.67-.992-2.67-2.87Z" transform="translate(-562.214 -708.458)" fill="#fff"/>
    </g>
  </g>
</svg>
