<?xml version="1.0" encoding="UTF-8" standalone="no"?>
<!DOCTYPE svg PUBLIC "-//W3C//DTD SVG 1.1//EN" "http://www.w3.org/Graphics/SVG/1.1/DTD/svg11.dtd">
<svg version="1.1" xmlns="http://www.w3.org/2000/svg" xmlns:xlink="http://www.w3.org/1999/xlink" preserveAspectRatio="xMidYMid meet" viewBox="0 0 640 640" width="640" height="640"><defs><path d="M156.8 248C158.47 247.9 159.9 249.17 160 250.84C160 250.86 160 250.89 160 250.91C160 254.05 160 279.12 160 282.26C160.1 283.87 158.88 285.26 157.27 285.37C157.11 285.38 156.96 285.37 156.8 285.36C153.29 285.36 135.72 285.36 104.11 285.36L104.11 304.22C129.07 304.22 142.94 304.22 145.71 304.22C147.09 304.1 148.3 305.12 148.42 306.49C148.43 306.64 148.43 306.78 148.42 306.93C148.13 309.84 145.88 333.09 145.6 336C145.17 337.59 143.72 338.7 142.06 338.69C139.53 338.69 126.88 338.69 104.11 338.69C104.11 368.45 104.11 384.98 104.11 388.29C103.96 389.9 102.63 391.14 101.01 391.18C97.34 391.18 67.99 391.18 64.32 391.18C62.7 391.04 61.45 389.7 61.41 388.08C61.41 374.37 61.41 264.67 61.41 250.96C61.42 249.35 62.71 248.03 64.32 248C82.82 248 138.3 248 156.8 248Z" id="f1A0cmWRP"></path><path d="M250.05 353.78C251.59 353.83 252.8 355.12 252.75 356.67C252.75 356.67 252.75 356.67 252.75 356.67C252.46 359.82 250.13 385.04 249.84 388.19C249.54 389.81 248.17 391.01 246.53 391.09C239.04 391.09 179.18 391.09 171.7 391.09C170.08 391.05 168.75 389.8 168.59 388.19C168.59 374.49 168.59 264.9 168.59 251.2C168.59 249.47 169.97 248.05 171.7 248C175.36 248 204.72 248 208.38 248C210.12 248.04 211.5 249.46 211.5 251.2C211.5 258.04 211.5 292.24 211.5 353.81C232.06 353.79 244.91 353.78 250.05 353.78Z" id="ajQFxtXI1"></path><path d="M301.06 248C302.74 247.97 304.13 249.32 304.16 251C304.16 251.07 304.16 251.13 304.16 251.2C304.16 264.9 304.16 374.52 304.16 388.22C304.09 389.88 302.71 391.17 301.06 391.12C297.39 391.12 268.02 391.12 264.35 391.12C262.81 390.98 261.6 389.76 261.46 388.22C261.46 374.52 261.46 264.9 261.46 251.2C261.45 249.54 262.7 248.16 264.35 248C271.69 248 293.72 248 301.06 248Z" id="b6qvWQzOk9"></path><path d="M384.38 248C411.58 248 429.57 264.18 429.57 288.43C429.57 303.34 422.32 314.34 411.12 317.65C424.19 320.98 432.69 333.41 432.69 350.62C432.69 374.86 414.66 391.04 387.7 391.04C381.12 391.04 328.56 391.04 321.98 391.04C320.4 391 319.13 389.73 319.09 388.14C319.09 374.45 319.09 264.89 319.09 251.2C319.08 249.54 320.34 248.16 321.98 248C334.46 248 371.9 248 384.38 248ZM374.78 304.18C381.01 304.18 385.15 300.45 385.15 294.58C385.15 288.7 381.01 284.98 374.78 284.98C373.91 284.98 369.56 284.98 361.73 284.98L361.73 304.22C368.69 304.2 373.04 304.18 374.78 304.18ZM378.51 353.94C384.53 353.94 388.67 350 388.67 343.98C388.67 337.97 384.53 334.03 378.51 334.03C377.4 334.03 371.82 334.03 361.79 334.03L361.79 353.94C370.71 353.94 376.28 353.94 378.51 353.94Z" id="a6xLlirfTq"></path><path d="M442.42 319.57C442.42 274.59 471.84 244.74 516.02 244.74C560.19 244.74 589.62 274.59 589.62 319.57C589.62 364.14 560.18 393.98 516.02 393.98C471.86 393.98 442.42 364.14 442.42 319.57ZM487.62 319.57C487.62 339.26 499.02 352.53 516.02 352.53C533.01 352.53 544.42 339.26 544.42 319.57C544.42 299.87 533.01 286.61 516.02 286.61C499.02 286.61 487.62 299.87 487.62 319.57Z" id="b1QvlW9Cw"></path></defs><g><g><g><use xlink:href="#f1A0cmWRP" opacity="1" fill="#ffffff" fill-opacity="1"></use><g><use xlink:href="#f1A0cmWRP" opacity="1" fill-opacity="0" stroke="#000000" stroke-width="1" stroke-opacity="0"></use></g></g><g><use xlink:href="#ajQFxtXI1" opacity="1" fill="#ffffff" fill-opacity="1"></use><g><use xlink:href="#ajQFxtXI1" opacity="1" fill-opacity="0" stroke="#000000" stroke-width="1" stroke-opacity="0"></use></g></g><g><use xlink:href="#b6qvWQzOk9" opacity="1" fill="#ffffff" fill-opacity="1"></use><g><use xlink:href="#b6qvWQzOk9" opacity="1" fill-opacity="0" stroke="#000000" stroke-width="1" stroke-opacity="0"></use></g></g><g><use xlink:href="#a6xLlirfTq" opacity="1" fill="#ffffff" fill-opacity="1"></use><g><use xlink:href="#a6xLlirfTq" opacity="1" fill-opacity="0" stroke="#000000" stroke-width="1" stroke-opacity="0"></use></g></g><g><use xlink:href="#b1QvlW9Cw" opacity="1" fill="#ffffff" fill-opacity="1"></use><g><use xlink:href="#b1QvlW9Cw" opacity="1" fill-opacity="0" stroke="#000000" stroke-width="1" stroke-opacity="0"></use></g></g></g></g></svg>