<svg xmlns="http://www.w3.org/2000/svg" width="321.923" height="67" viewBox="0 0 321.923 67"><g transform="translate(-850.294 -405.839)"><rect width="321.923" height="67" rx="7" transform="translate(850.294 405.839)" fill="#333"/><g transform="translate(876.074 425.455)"><path d="M879.907,438.73h-5.354V427.6h-10.44V438.73h-5.354V412.749h5.354v10.528h10.44V412.749h5.354Z" transform="translate(-858.759 -411.321)" fill="#fff"/><path d="M878.828,434.487a5.809,5.809,0,0,1-.518-1.73,6.236,6.236,0,0,1-4.87,2.086,6.847,6.847,0,0,1-4.7-1.642,5.277,5.277,0,0,1-1.864-4.139,5.459,5.459,0,0,1,2.275-4.711,11.231,11.231,0,0,1,6.575-1.66H878.1v-1.106a3.172,3.172,0,0,0-.688-2.141,2.693,2.693,0,0,0-2.165-.8,3.079,3.079,0,0,0-2.043.624,2.126,2.126,0,0,0-.743,1.715H867.3a5.18,5.18,0,0,1,1.035-3.106,6.866,6.866,0,0,1,2.927-2.238,10.65,10.65,0,0,1,4.246-.813,8.437,8.437,0,0,1,5.667,1.794,6.272,6.272,0,0,1,2.1,5.04v8.369a9.247,9.247,0,0,0,.768,4.16v.3Zm-4.263-3.584a4.449,4.449,0,0,0,2.1-.509,3.358,3.358,0,0,0,1.428-1.367v-3.32H876.17q-3.869,0-4.12,2.677l-.018.3a2.053,2.053,0,0,0,.679,1.587A2.625,2.625,0,0,0,874.565,430.9Z" transform="translate(-842.158 -407.078)" fill="#fff"/><path d="M881.873,427.95l3.588-13.01h5.387l-6.511,19.308h-4.925L872.9,414.94h5.387Z" transform="translate(-829.838 -406.839)" fill="#fff"/><path d="M888.892,434.844a9.483,9.483,0,0,1-6.916-2.6,9.258,9.258,0,0,1-2.668-6.941v-.5a11.664,11.664,0,0,1,1.124-5.2,8.265,8.265,0,0,1,3.186-3.536,8.954,8.954,0,0,1,4.7-1.24,8.014,8.014,0,0,1,6.237,2.5q2.275,2.494,2.275,7.084v2.1H884.537a4.8,4.8,0,0,0,1.508,3.033,4.555,4.555,0,0,0,3.185,1.142,5.562,5.562,0,0,0,4.656-2.159l2.534,2.839a7.74,7.74,0,0,1-3.14,2.561A10.312,10.312,0,0,1,888.892,434.844ZM888.3,418.98a3.217,3.217,0,0,0-2.488,1.042A5.385,5.385,0,0,0,884.589,423h7.175v-.411a3.831,3.831,0,0,0-.929-2.662A3.323,3.323,0,0,0,888.3,418.98Z" transform="translate(-816.727 -407.078)" fill="#fff"/><path d="M890.842,415.179l.158,2.232a6.74,6.74,0,0,1,5.552-2.589,5.614,5.614,0,0,1,4.568,1.8,8.4,8.4,0,0,1,1.532,5.39v12.471H897.5V422.141a3.351,3.351,0,0,0-.713-2.385,3.2,3.2,0,0,0-2.375-.74,3.545,3.545,0,0,0-3.265,1.858v13.613h-5.156V415.179Z" transform="translate(-803.063 -407.078)" fill="#fff"/><path d="M894.157,421.684l-2.427-1.41a9.5,9.5,0,0,0,1.587-4.976V412.28h4.105v2.765a8.17,8.17,0,0,1-.892,3.481A9.557,9.557,0,0,1,894.157,421.684Z" transform="translate(-791.318 -412.28)" fill="#fff"/><path d="M902.179,413.382v4.745h3.3v3.786h-3.3v9.636a2.3,2.3,0,0,0,.411,1.535,2.06,2.06,0,0,0,1.569.463,8.3,8.3,0,0,0,1.517-.125v3.907a10.571,10.571,0,0,1-3.122.463q-5.427,0-5.534-5.476v-10.4H894.2v-3.786h2.817v-4.745Z" transform="translate(-786.26 -410.026)" fill="#fff"/><path d="M923.322,431.235l3.5-18.486h5.336l-5.765,25.981H921l-4.23-17.38-4.23,17.38h-5.387l-5.765-25.981h5.335l3.514,18.452,4.285-18.452h4.531Z" transform="translate(-771.555 -411.321)" fill="#fff"/><path d="M923.842,434.487a5.718,5.718,0,0,1-.518-1.73,6.238,6.238,0,0,1-4.873,2.086,6.838,6.838,0,0,1-4.7-1.642,5.27,5.27,0,0,1-1.867-4.139,5.459,5.459,0,0,1,2.275-4.711,11.238,11.238,0,0,1,6.575-1.66h2.376v-1.106a3.172,3.172,0,0,0-.688-2.141,2.7,2.7,0,0,0-2.168-.8,3.084,3.084,0,0,0-2.043.624,2.124,2.124,0,0,0-.74,1.715h-5.156a5.18,5.18,0,0,1,1.036-3.106,6.849,6.849,0,0,1,2.927-2.238,10.65,10.65,0,0,1,4.245-.813,8.443,8.443,0,0,1,5.668,1.794,6.273,6.273,0,0,1,2.1,5.04v8.369a9.247,9.247,0,0,0,.768,4.16v.3Zm-4.264-3.584a4.449,4.449,0,0,0,2.1-.509,3.358,3.358,0,0,0,1.428-1.367v-3.32h-1.928q-3.874,0-4.124,2.677l-.015.3a2.061,2.061,0,0,0,.676,1.587A2.638,2.638,0,0,0,919.579,430.9Z" transform="translate(-750.09 -407.078)" fill="#fff"/><path d="M925.956,413.382v4.745h3.3v3.786h-3.3v9.636a2.3,2.3,0,0,0,.411,1.535,2.072,2.072,0,0,0,1.572.463,8.343,8.343,0,0,0,1.517-.125v3.907a10.576,10.576,0,0,1-3.125.463q-5.422,0-5.531-5.476v-10.4h-2.82v-3.786h2.82v-4.745Z" transform="translate(-737.625 -410.026)" fill="#fff"/><path d="M931.195,430.687a3.378,3.378,0,0,0,2.321-.786,2.751,2.751,0,0,0,.929-2.086h4.833a6.606,6.606,0,0,1-1.069,3.6,7.1,7.1,0,0,1-2.881,2.534,9.038,9.038,0,0,1-4.044.9,8.379,8.379,0,0,1-6.529-2.631,10.418,10.418,0,0,1-2.391-7.27V424.6a10.308,10.308,0,0,1,2.373-7.12,8.29,8.29,0,0,1,6.514-2.659,8.124,8.124,0,0,1,5.808,2.062,7.282,7.282,0,0,1,2.22,5.488h-4.833a3.55,3.55,0,0,0-.929-2.449,3.444,3.444,0,0,0-5.077.372,7.615,7.615,0,0,0-.919,4.264v.533a7.72,7.72,0,0,0,.91,4.291A3.14,3.14,0,0,0,931.195,430.687Z" transform="translate(-728.66 -407.078)" fill="#fff"/><path d="M934,422.488a6.435,6.435,0,0,1,5.156-2.464q6.281,0,6.371,7.3v12.365H940.37V427.468a3.592,3.592,0,0,0-.713-2.455,3.056,3.056,0,0,0-2.372-.795A3.512,3.512,0,0,0,934,425.966v13.723h-5.159V412.28H934Z" transform="translate(-715.405 -412.28)" fill="#fff"/><path d="M944.952,434.844a9.476,9.476,0,0,1-6.913-2.6,9.259,9.259,0,0,1-2.668-6.941v-.5a11.664,11.664,0,0,1,1.124-5.2,8.248,8.248,0,0,1,3.186-3.536,8.946,8.946,0,0,1,4.7-1.24,8.008,8.008,0,0,1,6.234,2.5q2.275,2.494,2.278,7.084v2.1H940.6a4.79,4.79,0,0,0,1.511,3.033,4.553,4.553,0,0,0,3.182,1.142,5.564,5.564,0,0,0,4.66-2.159l2.534,2.839a7.748,7.748,0,0,1-3.143,2.561A10.3,10.3,0,0,1,944.952,434.844Zm-.588-15.864a3.224,3.224,0,0,0-2.491,1.042A5.383,5.383,0,0,0,940.652,423h7.172v-.411a3.831,3.831,0,0,0-.926-2.662A3.331,3.331,0,0,0,944.364,418.98Z" transform="translate(-702.052 -407.078)" fill="#fff"/><path d="M941.822,429.892a11.623,11.623,0,0,1,2.025-7.19,6.57,6.57,0,0,1,5.54-2.677,5.912,5.912,0,0,1,4.656,2.108V412.28h5.177v27.409h-4.659l-.25-2.053a6.064,6.064,0,0,1-4.961,2.409,6.545,6.545,0,0,1-5.467-2.683Q941.819,434.676,941.822,429.892Zm5.156.384a7.629,7.629,0,0,0,.947,4.166,3.076,3.076,0,0,0,2.747,1.447,3.448,3.448,0,0,0,3.371-2.019v-7.632a3.4,3.4,0,0,0-3.335-2.019Q946.976,424.218,946.978,430.276Z" transform="translate(-688.857 -412.28)" fill="#fff"/></g></g></svg>