<?xml version="1.0" encoding="UTF-8" standalone="no"?>
<!DOCTYPE svg PUBLIC "-//W3C//DTD SVG 1.1//EN" "http://www.w3.org/Graphics/SVG/1.1/DTD/svg11.dtd">
<svg version="1.1" xmlns="http://www.w3.org/2000/svg" xmlns:xlink="http://www.w3.org/1999/xlink" preserveAspectRatio="xMidYMid meet" viewBox="0 0 36 32" width="36" height="32"><defs><path d="M16.61 31.48C15.16 30.21 13.75 29.02 12.52 27.96C12.52 27.96 12.52 27.96 12.51 27.96C9.32 25.41 6.33 22.6 3.58 19.57C1.15 16.64 0.02 13.85 0.02 10.81C-0.03 7.98 0.99 5.24 2.87 3.13C4.72 1.12 7.33 -0.02 10.06 0C12.11 -0.01 14.1 0.68 15.71 1.95C16.58 2.63 17.36 3.43 18 4.33C18.64 3.43 19.41 2.63 20.29 1.95C21.89 0.68 23.89 -0.01 25.94 0C28.67 -0.02 31.28 1.12 33.13 3.13C35.02 5.24 36.03 7.98 35.99 10.81C35.99 13.85 34.85 16.64 32.42 19.58C29.67 22.6 26.69 25.41 23.49 27.96C22.25 29.01 20.85 30.21 19.39 31.48C19.01 31.82 18.51 32 18 32C17.49 32 16.99 31.82 16.61 31.48ZM4.42 4.56C2.9 6.28 2.08 8.51 2.12 10.81C2.12 13.37 3.07 15.66 5.21 18.23C7.88 21.16 10.78 23.88 13.88 26.35C13.88 26.35 13.89 26.36 13.89 26.36C15.13 27.41 16.53 28.61 18 29.89C19.48 28.61 20.88 27.41 22.12 26.35C25.22 23.87 28.12 21.16 30.8 18.23C32.93 15.65 33.88 13.37 33.88 10.81C33.93 8.51 33.11 6.28 31.58 4.56C30.13 2.98 28.08 2.09 25.94 2.11C24.35 2.1 22.81 2.63 21.57 3.62C20.6 4.4 19.77 5.35 19.14 6.43C18.77 7.06 17.95 7.27 17.32 6.89C17.13 6.78 16.97 6.62 16.86 6.43C16.23 5.35 15.4 4.4 14.43 3.62C13.18 2.63 11.64 2.1 10.06 2.11C7.92 2.09 5.87 2.98 4.42 4.56Z" id="dt6KSEDvX"></path></defs><g><g><g><use xlink:href="#dt6KSEDvX" opacity="1" fill="#333333" fill-opacity="1"></use><g><use xlink:href="#dt6KSEDvX" opacity="1" fill-opacity="0" stroke="#000000" stroke-width="1" stroke-opacity="0"></use></g></g></g></g></svg>