<svg xmlns="http://www.w3.org/2000/svg" width="36.527" height="32.498" viewBox="0 0 36.527 32.498"><path d="M18.264,32.5a2.142,2.142,0,0,1-1.412-.531c-1.476-1.29-2.9-2.5-4.153-3.572l-.006-.006a77.249,77.249,0,0,1-9.069-8.512C1.151,16.894,0,14.067,0,10.978a11.417,11.417,0,0,1,2.9-7.8A9.822,9.822,0,0,1,10.2,0a9.188,9.188,0,0,1,5.739,1.981A11.742,11.742,0,0,1,18.264,4.4a11.743,11.743,0,0,1,2.321-2.423A9.188,9.188,0,0,1,26.323,0,9.823,9.823,0,0,1,33.63,3.18a11.416,11.416,0,0,1,2.9,7.8c0,3.089-1.151,5.917-3.623,8.9a77.232,77.232,0,0,1-9.068,8.512c-1.257,1.071-2.682,2.286-4.161,3.579A2.144,2.144,0,0,1,18.264,32.5ZM10.2,2.14A7.706,7.706,0,0,0,4.471,4.631a9.287,9.287,0,0,0-2.331,6.347c0,2.6.966,4.922,3.131,7.534a76.016,76.016,0,0,0,8.809,8.249l.007.006c1.26,1.074,2.688,2.291,4.175,3.591,1.5-1.3,2.926-2.522,4.188-3.6a76.03,76.03,0,0,0,8.809-8.248c2.165-2.612,3.13-4.936,3.13-7.534a9.287,9.287,0,0,0-2.331-6.347A7.706,7.706,0,0,0,26.323,2.14a7.1,7.1,0,0,0-4.43,1.534,10.383,10.383,0,0,0-2.469,2.857,1.351,1.351,0,0,1-2.32,0,10.373,10.373,0,0,0-2.469-2.857A7.1,7.1,0,0,0,10.2,2.14Zm0,0" opacity="0.844"/></svg>