<?xml version="1.0" encoding="UTF-8" standalone="no"?>
<!DOCTYPE svg PUBLIC "-//W3C//DTD SVG 1.1//EN" "http://www.w3.org/Graphics/SVG/1.1/DTD/svg11.dtd">
<svg version="1.1" xmlns="http://www.w3.org/2000/svg" xmlns:xlink="http://www.w3.org/1999/xlink" preserveAspectRatio="xMidYMid meet" viewBox="0 0 50 50" width="50" height="50"><defs><path d="M36.1 50C33.3 50 31.04 47.7 31.04 44.87C31.04 43.98 31.04 36.8 31.04 35.91C31.03 35.01 30.31 34.28 29.43 34.28C28.54 34.28 21.46 34.28 20.58 34.28C19.69 34.28 18.97 35.01 18.97 35.91C18.97 36.8 18.97 43.98 18.97 44.87C18.97 47.7 16.7 50 13.91 50C13.02 50 5.94 50 5.06 50C2.27 50 0 47.7 0 44.87C0 42.25 0 21.27 0 18.65C-0.01 16.9 0.87 15.27 2.32 14.33C4.4 12.98 20.98 2.17 23.06 0.82C24.78 -0.31 26.99 -0.27 28.67 0.92C30.59 2.26 45.91 13.01 47.82 14.35C49.19 15.31 50 16.88 50 18.56C50 21.19 50 42.23 50 44.86C50 47.7 47.74 50 44.94 50C44.94 50 36.98 50 36.1 50ZM29.42 30.77C32.22 30.78 34.48 33.07 34.48 35.9C34.48 36.8 34.48 43.97 34.48 44.87C34.48 45.77 35.2 46.5 36.09 46.5C36.98 46.5 44.06 46.5 44.94 46.5C45.83 46.5 46.55 45.77 46.55 44.87C46.55 42.24 46.55 21.21 46.55 18.58C46.55 18.04 46.3 17.54 45.86 17.23C43.95 15.89 28.63 5.14 26.71 3.8C26.18 3.42 25.47 3.41 24.93 3.77C22.85 5.12 6.26 15.93 4.19 17.28C3.73 17.58 3.45 18.1 3.45 18.65C3.45 21.27 3.45 42.25 3.45 44.88C3.45 45.78 4.17 46.51 5.06 46.51C5.95 46.51 13.02 46.51 13.91 46.51C14.8 46.51 15.52 45.78 15.52 44.88C15.52 43.98 15.52 36.81 15.52 35.91C15.52 33.08 17.78 30.79 20.58 30.78C20.58 30.78 28.54 30.77 29.42 30.77Z" id="bpNL3MVBv"></path><path d="M2.56 47.75L16.42 46.88L18.36 33.57L32.11 33.68L33.52 47.64L47.37 47.42L47.15 17.19L25.94 3.13L3.13 17.98L2.56 47.75Z" id="bolruP8IM"></path></defs><g><g><g><use xlink:href="#bpNL3MVBv" opacity="1" fill="#333333" fill-opacity="1"></use><g><use xlink:href="#bpNL3MVBv" opacity="1" fill-opacity="0" stroke="#000000" stroke-width="1" stroke-opacity="0"></use></g></g><g><use xlink:href="#bolruP8IM" opacity="1" fill="#333333" fill-opacity="1"></use><g><use xlink:href="#bolruP8IM" opacity="1" fill-opacity="0" stroke="#333333" stroke-width="1" stroke-opacity="1"></use></g></g></g></g></svg>