<svg xmlns="http://www.w3.org/2000/svg" width="36.367" height="35.89" viewBox="0 0 36.367 35.89">
    <defs>
        <style>
            .cls-1{fill:none}.cls-2{fill:#333}
        </style>
    </defs>
    <g id="home-icon" transform="translate(-292 -795.754)">
        <g id="Group_162" data-name="Group 162" transform="translate(292 795.762)">
            <path id="Path_166" d="M493.2 224.776l-15.082 9.7a2.427 2.427 0 0 0-1.114 2.04v18.824a2.426 2.426 0 0 0 2.425 2.425h6.436a2.426 2.426 0 0 0 2.425-2.425v-6.44a2.426 2.426 0 0 1 2.425-2.425h6.436a2.426 2.426 0 0 1 2.425 2.425v6.436a2.426 2.426 0 0 0 2.424 2.426h6.436a2.426 2.426 0 0 0 2.425-2.425v-18.879a2.425 2.425 0 0 0-1.045-1.994l-13.928-9.642a2.424 2.424 0 0 0-2.688-.046z" class="cls-1" data-name="Path 166" transform="translate(-475.746 -223.134)"/>
            <path id="Path_167" d="M508.69 259.27h-6.436a3.683 3.683 0 0 1-3.68-3.68v-6.436a1.173 1.173 0 0 0-1.171-1.171h-6.436a1.173 1.173 0 0 0-1.171 1.171v6.436a3.683 3.683 0 0 1-3.68 3.68h-6.436a3.683 3.683 0 0 1-3.68-3.68v-18.823a3.661 3.661 0 0 1 1.69-3.1l15.081-9.7a3.664 3.664 0 0 1 4.083.071l13.928 9.642a3.681 3.681 0 0 1 1.585 3.026v18.877a3.683 3.683 0 0 1-3.677 3.687zm-17.723-13.8h6.433a3.683 3.683 0 0 1 3.68 3.68v6.436a1.173 1.173 0 0 0 1.171 1.171h6.436a1.173 1.173 0 0 0 1.171-1.171v-18.872a1.169 1.169 0 0 0-.5-.963l-13.928-9.643a1.169 1.169 0 0 0-1.3-.023l-15.082 9.7a1.162 1.162 0 0 0-.538.984v18.824a1.173 1.173 0 0 0 1.171 1.171h6.436a1.173 1.173 0 0 0 1.171-1.171v-6.436a3.683 3.683 0 0 1 3.678-3.682z" class="cls-2" data-name="Path 167" transform="translate(-476 -223.388)"/>
        </g>
    </g>
</svg>
