<svg xmlns="http://www.w3.org/2000/svg" width="36.742" height="37.802" viewBox="0 0 36.742 37.802"><g transform="matrix(-0.259, -0.966, 0.966, -0.259, -139.751, 627.061)"><path d="M560,310a14,14,0,1,1-14-14" fill="#fff"/><path d="M546,325a15,15,0,0,1,0-30,1,1,0,0,1,0,2,13,13,0,1,0,13,13,1,1,0,0,1,2,0A15.017,15.017,0,0,1,546,325Z" fill="#333"/><path d="M565,310.438h-9.7a1,1,0,0,1-.866-1.5l4.85-8.4a1.039,1.039,0,0,1,1.732,0l4.849,8.4a1,1,0,0,1-.866,1.5Zm-7.967-2h6.235l-3.117-5.4Z" fill="#333"/></g></svg>