<svg xmlns="http://www.w3.org/2000/svg" xmlns:xlink="http://www.w3.org/1999/xlink" width="120" height="120" viewBox="0 0 120 120"><defs><clipPath id="b"><rect width="120" height="120"/></clipPath></defs><g id="a" clip-path="url(#b)"><g transform="translate(-119.051 715.181) rotate(-105.009)"><path d="M578.65,390.3a47.65,47.65,0,1,1,0-95.3,3.177,3.177,0,1,1,0,6.353,41.3,41.3,0,1,0,41.3,41.3,3.177,3.177,0,1,1,6.353,0A47.7,47.7,0,0,1,578.65,390.3Z" transform="translate(0 0)" fill="#333"/><path d="M588.29,333H557.477a3.177,3.177,0,0,1-2.751-4.765l15.407-26.684a3.3,3.3,0,0,1,5.5,0l15.4,26.684A3.177,3.177,0,0,1,588.287,333Zm-25.308-6.353h19.806l-9.9-17.154Z" transform="translate(50.715 11.042)" fill="#333"/></g></g></svg>