<svg xmlns="http://www.w3.org/2000/svg" width="49" height="37.492" viewBox="0 0 49 37.492"><g transform="translate(0 -60.121)"><g transform="translate(16.111 93.109)"><path d="M169.057,404.814a.718.718,0,0,0-.718.718V408.6a.718.718,0,0,0,1.436,0v-3.069A.718.718,0,0,0,169.057,404.814Z" transform="translate(-168.339 -404.814)"/></g><g transform="translate(31.454 93.109)"><path d="M329.379,404.814a.718.718,0,0,0-.718.718V408.6a.718.718,0,0,0,1.436,0v-3.069A.718.718,0,0,0,329.379,404.814Z" transform="translate(-328.661 -404.814)"/></g><g transform="translate(5.37 76.999)"><g transform="translate(0 0)"><path d="M61.755,237.319a14,14,0,0,0-4.924-.843.718.718,0,0,0,0,1.436,12.419,12.419,0,0,1,4.282.691.718.718,0,1,0,.642-1.284Z" transform="translate(-56.113 -236.476)"/></g></g><g transform="translate(3.069 91.575)"><g transform="translate(0 0)"><path d="M32.782,388.782a.718.718,0,0,0-.718.718v4.6a.718.718,0,1,0,1.436,0v-4.6A.718.718,0,0,0,32.782,388.782Z" transform="translate(-32.064 -388.782)"/></g></g><g transform="translate(0 60.121)"><g transform="translate(0 0)"><path d="M47.331,88.894l-2.907-1.453A.049.049,0,0,1,44.4,87.4V85.936a5.3,5.3,0,0,0,2.249-3.645,6.07,6.07,0,0,0-1.613-7.905,3.08,3.08,0,0,0,.131-.889,3.808,3.808,0,0,0-7.573,0,3.079,3.079,0,0,0,.131.889,6.119,6.119,0,0,0-1.992,2.6c-.178-1.748-.363-3.815-.541-6.223A11.88,11.88,0,0,0,31.885,63a10.267,10.267,0,0,0-7.385-2.88A10.266,10.266,0,0,0,17.115,63a11.881,11.881,0,0,0-3.3,7.758c-.062.843-.125,1.643-.189,2.4H6.855A4.559,4.559,0,0,0,2.3,77.716v.043a3.805,3.805,0,0,0,.4,1.693l.367.735v1.172a5.6,5.6,0,0,0,2.3,4.527v1.037a.3.3,0,0,1-.217.288l-2.963.847A3.032,3.032,0,0,0,0,90.96V96.9a.718.718,0,1,0,1.436,0V90.96a1.591,1.591,0,0,1,1.149-1.523l2.963-.847a1.7,1.7,0,0,0,.305-.121l1.819,1.819V96.9a.718.718,0,1,0,1.436,0V90.288l1.832-1.832a3.93,3.93,0,0,0,.668.241l.728.208A3.788,3.788,0,0,0,10.74,91.99V96.9a.718.718,0,0,0,1.436,0V91.99a2.352,2.352,0,0,1,1.4-2.15l4.1-1.813a7.624,7.624,0,0,0,13.64,0l4.1,1.812a2.352,2.352,0,0,1,1.4,2.15V96.9a.718.718,0,0,0,1.436,0V91.99a3.786,3.786,0,0,0-.907-2.456l1.111-.555.834.792a3.018,3.018,0,0,0,4.16,0l.834-.792,2.4,1.2a1.575,1.575,0,0,1,.875,1.417v5.3A.718.718,0,0,0,49,96.9v-5.3A3,3,0,0,0,47.331,88.894ZM41.378,71.53A2.187,2.187,0,0,1,43.728,73.5c0,.045,0,.091-.007.136a6.081,6.081,0,0,0-4.687,0c0-.045-.008-.09-.008-.135A2.187,2.187,0,0,1,41.378,71.53ZM8.39,88.976,6.754,87.341a1.718,1.718,0,0,0,.052-.418v-.3a5.029,5.029,0,0,0,1.421.251l.165,0a5.331,5.331,0,0,0,1.581-.239v.288a1.972,1.972,0,0,0,.044.426Zm-.12-3.541A4.016,4.016,0,0,1,4.5,81.359V80.018a.717.717,0,0,0-.076-.321l-.443-.886a2.364,2.364,0,0,1-.248-1.051v-.043A3.122,3.122,0,0,1,6.855,74.6h6.187v2.98a3.133,3.133,0,0,1-.329,1.394l-.362.724a.718.718,0,0,0-.076.321v1.534a3.885,3.885,0,0,1-4.005,3.883Zm6,2.53L12,87.317c-.592-.169-.592-.235-.592-.395v-.989a5.3,5.3,0,0,0,1.092-1,1.472,1.472,0,0,0,.521.586,15.85,15.85,0,0,0,3.258,1.561ZM24.5,90.808a6.181,6.181,0,0,1-5.505-3.361l1.045-.461a2.253,2.253,0,0,0,1.342-2.06V83.2a8.386,8.386,0,0,0,6.236,0v1.722a2.253,2.253,0,0,0,1.342,2.06L30,87.447A6.165,6.165,0,0,1,24.5,90.808ZM30.724,86.2l-1.184-.523a.817.817,0,0,1-.487-.747V82.458a8.39,8.39,0,0,0,3.836-7.043V74.069a2.994,2.994,0,0,0-1.02-2.264C30.427,70.551,27.162,68.362,21.5,67.8a.718.718,0,1,0-.143,1.428c5.264.526,8.254,2.521,9.567,3.664a1.559,1.559,0,0,1,.527,1.18v1.346a6.954,6.954,0,0,1-13.908,0v-.6a.782.782,0,0,1,.409-.676,5.682,5.682,0,0,0,2.623-3.1.718.718,0,1,0-1.362-.454,4.269,4.269,0,0,1-1.977,2.31,2.231,2.231,0,0,0-1.128,1.92v.6a8.389,8.389,0,0,0,3.836,7.043v2.468a.817.817,0,0,1-.487.747l-1.184.523A15.857,15.857,0,0,1,13.8,84.311a.035.035,0,0,1-.017-.042c.25-1.48.894-5.749,1.459-13.4a10.474,10.474,0,0,1,2.88-6.841A8.861,8.861,0,0,1,24.5,61.557a8.861,8.861,0,0,1,6.378,2.467,10.474,10.474,0,0,1,2.88,6.841c.565,7.655,1.208,11.924,1.459,13.4a.035.035,0,0,1-.018.042A15.861,15.861,0,0,1,30.724,86.2Zm7.635,1.2a.049.049,0,0,1-.027.044l-2.249,1.124c-.027-.013-.052-.027-.079-.039l-3.282-1.449a15.852,15.852,0,0,0,3.258-1.561,1.475,1.475,0,0,0,.653-1.486l-.017-.1a5.309,5.309,0,0,0,1.744,2.007Zm4.11,1.335a1.583,1.583,0,0,1-2.182,0l-.667-.634a1.485,1.485,0,0,0,.174-.7v-.764a5.342,5.342,0,0,0,3.167,0V87.4a1.485,1.485,0,0,0,.174.7Zm-1.091-3.294a3.876,3.876,0,0,1-3.861-3.462.718.718,0,0,0-.1-.3,4.653,4.653,0,1,1,8.379-.975,13.327,13.327,0,0,0-5.8-2.92.718.718,0,0,0-.872.7,1.755,1.755,0,0,1-.557,1.027.718.718,0,0,0,1.015,1.015,3.473,3.473,0,0,0,.78-1.159c1.208.359,3.715,1.265,4.84,2.855A3.875,3.875,0,0,1,41.378,85.437Z" transform="translate(0 -60.121)"/></g></g><g transform="translate(44.496 92.523)"><path d="M465.654,398.692a.718.718,0,0,0-.718.718v3.655a.718.718,0,0,0,1.436,0V399.41A.718.718,0,0,0,465.654,398.692Z" transform="translate(-464.936 -398.692)"/></g></g></svg>