<svg xmlns="http://www.w3.org/2000/svg" width="34.165" height="34.166" viewBox="0 0 34.165 34.166">
    <defs>
        <style>
            .cls-1{fill:#fff}.cls-2{fill:#333}
        </style>
    </defs>
    <g id="search-icon" transform="translate(-528 -221.999)">
        <g id="Group_133" data-name="Group 133" transform="translate(528 222)">
            <circle id="Ellipse_16" cx="12.5" cy="12.5" r="12.5" class="cls-1" data-name="Ellipse 16" transform="translate(.447 .447)"/>
            <path id="Path_128" d="M541.287 248.573a13.287 13.287 0 1 1 13.287-13.287 13.287 13.287 0 0 1-13.287 13.287zm0-24.042a10.756 10.756 0 1 0 10.756 10.756 10.756 10.756 0 0 0-10.756-10.756z" class="cls-2" data-name="Path 128" transform="translate(-528 -222)"/>
        </g>
        <g id="Group_134" data-name="Group 134" transform="translate(541.869 226.519)">
            <path id="Path_129" d="M539.46 226.071A8.226 8.226 0 0 1 545.543 238" class="cls-1" data-name="Path 129" transform="translate(-538.828 -225.438)"/>
            <path id="Path_130" d="M545.674 238.768a.632.632 0 0 1-.561-.924 7.594 7.594 0 0 0-5.615-11.015.633.633 0 0 1 .189-1.251 8.859 8.859 0 0 1 6.548 12.849.631.631 0 0 1-.561.341z" class="cls-2" data-name="Path 130" transform="translate(-538.961 -225.571)"/>
        </g>
        <g id="Group_135" data-name="Group 135" transform="translate(549.511 243.511)">
            <path id="Path_131" d="M556.389 251.654a1.262 1.262 0 0 1-.9-.371l-10.118-10.123a1.265 1.265 0 0 1 1.789-1.789l10.123 10.123a1.265 1.265 0 0 1-.9 2.16z" class="cls-2" data-name="Path 131" transform="translate(-545 -239)"/>
        </g>
    </g>
</svg>
