<?xml version="1.0" encoding="UTF-8" standalone="no"?>
<!DOCTYPE svg PUBLIC "-//W3C//DTD SVG 1.1//EN" "http://www.w3.org/Graphics/SVG/1.1/DTD/svg11.dtd">
<svg version="1.1" xmlns="http://www.w3.org/2000/svg" xmlns:xlink="http://www.w3.org/1999/xlink" preserveAspectRatio="xMidYMid meet" viewBox="0 0 512 512" width="512" height="512"><defs><path d="M233.14 0.72L241.82 1.6L250.4 2.83L258.87 4.39L267.22 6.27L275.44 8.48L283.53 11L291.49 13.83L299.29 16.96L306.95 20.38L314.44 24.09L321.77 28.08L328.92 32.33L335.89 36.85L342.68 41.63L349.27 46.66L355.66 51.94L361.84 57.45L367.8 63.19L373.54 69.15L379.05 75.33L384.32 81.72L389.35 88.31L394.13 95.1L398.66 102.07L402.91 109.22L406.9 116.55L410.6 124.04L414.03 131.7L417.15 139.51L419.98 147.46L422.5 155.55L424.71 163.77L426.6 172.12L428.16 180.59L429.39 189.17L430.27 197.85L430.81 206.63L430.99 215.5L430.95 219.41L430.85 223.31L430.67 227.18L430.43 231.04L430.12 234.88L429.75 238.7L429.3 242.51L428.79 246.29L428.22 250.05L427.58 253.79L426.87 257.51L426.11 261.2L425.28 264.87L424.38 268.52L423.43 272.14L422.41 275.74L421.34 279.32L420.2 282.86L419 286.38L417.75 289.87L416.44 293.34L415.06 296.78L413.64 300.18L412.15 303.56L410.61 306.91L409.02 310.22L407.37 313.51L405.66 316.76L403.91 319.98L402.1 323.17L400.23 326.32L398.32 329.44L396.35 332.52L394.34 335.57L392.27 338.58L390.16 341.55L387.99 344.49L386.92 345.9L507.14 466.13L506.81 466.46L507.39 467.31L508.04 468.37L508.65 469.45L509.21 470.57L509.72 471.71L510.18 472.88L510.6 474.08L510.96 475.29L511.27 476.53L511.53 477.79L511.74 479.07L511.88 480.36L511.97 481.67L512 483L511.97 484.33L511.97 484.33L511.88 485.64L511.74 486.93L511.53 488.21L511.27 489.47L510.96 490.71L510.6 491.92L510.18 493.12L509.72 494.29L509.21 495.43L508.65 496.55L508.04 497.63L508.04 497.63L507.39 498.69L506.69 499.72L505.96 500.72L505.96 500.72L505.18 501.68L504.36 502.61L503.5 503.5L502.61 504.36L501.68 505.18L500.72 505.96L499.72 506.69L498.69 507.39L497.63 508.04L496.55 508.65L495.43 509.21L494.29 509.72L493.12 510.18L491.92 510.6L490.71 510.96L489.47 511.27L488.21 511.53L486.93 511.74L485.64 511.88L484.33 511.97L483 512L481.67 511.97L480.36 511.88L479.07 511.74L477.79 511.53L476.53 511.27L475.29 510.96L474.08 510.6L472.88 510.18L471.71 509.72L470.57 509.21L469.45 508.65L468.37 508.04L467.31 507.39L467.31 507.39L466.46 506.82L466.13 507.15L345.9 386.91L344.48 387.99L341.55 390.16L338.57 392.27L335.56 394.34L332.51 396.35L329.43 398.32L326.31 400.23L323.16 402.1L319.97 403.91L316.75 405.66L313.5 407.37L310.22 409.02L306.9 410.61L303.55 412.15L300.18 413.64L296.77 415.06L293.33 416.43L289.87 417.75L286.38 419L282.86 420.2L279.31 421.33L275.74 422.41L272.14 423.43L268.51 424.38L264.87 425.27L261.19 426.1L257.5 426.87L253.78 427.58L250.04 428.22L246.28 428.79L242.5 429.3L238.7 429.74L234.88 430.12L231.04 430.43L227.18 430.67L223.3 430.84L219.41 430.95L215.49 430.98L206.63 430.8L197.85 430.27L189.16 429.38L180.59 428.16L172.12 426.6L163.77 424.71L155.55 422.5L147.45 419.98L139.5 417.15L131.69 414.02L124.04 410.6L116.55 406.9L109.22 402.91L102.07 398.65L95.09 394.13L88.31 389.35L81.72 384.32L75.33 379.05L69.15 373.54L63.19 367.8L57.45 361.84L51.94 355.66L46.66 349.27L41.63 342.68L36.85 335.9L32.33 328.92L28.07 321.77L24.09 314.44L20.38 306.95L16.96 299.3L13.83 291.49L11 283.54L8.48 275.45L6.27 267.22L4.39 258.87L2.83 250.41L1.6 241.83L0.72 233.15L0.18 224.37L0 215.5L0.18 206.63L0.72 197.85L1.6 189.17L2.83 180.59L4.39 172.12L6.27 163.77L8.48 155.55L11 147.46L13.83 139.51L16.96 131.7L20.38 124.04L24.09 116.55L28.07 109.22L32.33 102.07L36.85 95.1L41.63 88.31L46.66 81.72L51.94 75.33L57.45 69.15L63.19 63.19L69.15 57.45L75.33 51.94L81.72 46.66L88.31 41.63L95.09 36.85L102.07 32.33L109.22 28.08L116.55 24.09L124.04 20.38L131.69 16.96L139.5 13.83L147.45 11L155.55 8.48L163.77 6.27L172.12 4.39L180.59 2.83L189.16 1.6L197.85 0.72L206.63 0.18L215.49 0L224.36 0.18L233.14 0.72ZM204.49 60.72L198.2 61.36L191.98 62.24L185.84 63.37L179.79 64.74L173.82 66.34L167.96 68.17L162.19 70.21L156.54 72.48L150.99 74.96L145.56 77.64L140.25 80.52L135.07 83.61L130.01 86.88L125.1 90.34L120.32 93.99L115.7 97.81L111.22 101.8L106.9 105.95L102.74 110.27L98.75 114.75L94.93 119.38L91.29 124.15L87.83 129.07L84.55 134.12L81.47 139.3L78.59 144.61L75.9 150.04L73.42 155.59L71.16 161.25L69.11 167.01L67.29 172.88L65.69 178.84L64.32 184.89L63.19 191.03L62.3 197.25L61.66 203.55L61.28 209.91L61.15 216.34L61.28 222.78L61.66 229.14L62.3 235.44L63.19 241.66L64.32 247.8L65.69 253.85L67.29 259.81L69.11 265.68L71.16 271.44L73.42 277.1L75.9 282.64L78.59 288.08L81.47 293.38L84.55 298.57L87.83 303.62L91.29 308.54L94.93 313.31L98.75 317.94L102.74 322.41L106.9 326.73L111.22 330.89L115.7 334.88L120.32 338.7L125.1 342.34L130.01 345.81L135.07 349.08L140.25 352.16L145.56 355.05L150.99 357.73L156.54 360.21L162.19 362.47L167.96 364.52L173.82 366.35L179.79 367.95L185.84 369.31L191.98 370.44L198.2 371.33L204.49 371.97L210.86 372.36L217.29 372.49L223.72 372.36L230.09 371.97L236.38 371.33L242.6 370.44L248.74 369.31L254.79 367.95L260.76 366.35L266.62 364.52L272.39 362.47L278.04 360.21L283.59 357.73L289.02 355.05L294.33 352.16L299.51 349.08L304.57 345.81L309.48 342.34L314.26 338.7L318.88 334.88L323.36 330.89L327.68 326.73L331.84 322.41L335.83 317.94L339.65 313.31L343.29 308.54L346.75 303.62L350.03 298.57L353.11 293.38L355.99 288.08L358.68 282.64L361.16 277.1L363.42 271.44L365.47 265.68L367.29 259.81L368.89 253.85L370.26 247.8L371.39 241.66L372.28 235.44L372.92 229.14L373.3 222.78L373.43 216.34L373.3 209.91L372.92 203.55L372.28 197.25L371.39 191.03L370.26 184.89L368.89 178.84L367.29 172.88L365.47 167.01L363.42 161.25L361.16 155.59L358.68 150.04L355.99 144.61L353.11 139.3L350.03 134.12L346.75 129.07L343.29 124.15L339.65 119.38L335.83 114.75L331.84 110.27L327.68 105.95L323.36 101.8L318.88 97.81L314.26 93.99L309.48 90.34L304.57 86.88L299.51 83.61L294.33 80.52L289.02 77.64L283.59 74.96L278.04 72.48L272.39 70.21L266.62 68.17L260.76 66.34L254.79 64.74L248.74 63.37L242.6 62.24L236.38 61.36L230.09 60.72L223.72 60.33L217.29 60.2L210.86 60.33L204.49 60.72Z" id="gj9iak6tV"></path></defs><g><g><g><use xlink:href="#gj9iak6tV" opacity="1" fill="#333333" fill-opacity="1"></use><g><use xlink:href="#gj9iak6tV" opacity="1" fill-opacity="0" stroke="#000000" stroke-width="1" stroke-opacity="0"></use></g></g></g></g></svg>