<svg xmlns="http://www.w3.org/2000/svg" width="39.964" height="43.514" viewBox="0 0 39.964 43.514">
    <defs>
        <style>
            .cls-1{fill:#333}.cls-2{fill:#fff}
        </style>
    </defs>
    <g id="suggestions-icon" transform="translate(-675 -215.001)">
        <g id="Group_145" data-name="Group 145" transform="translate(675 236.093)">
            <path id="Path_144" d="M678.885 235.11h-3.33a.555.555 0 0 1 0-1.11h3.33a.555.555 0 0 1 0 1.11z" class="cls-1" data-name="Path 144" transform="translate(-675 -234)"/>
        </g>
        <g id="Group_146" data-name="Group 146" transform="translate(680.828 221.089)">
            <path id="Path_145" d="M683.025 223.814a.553.553 0 0 1-.393-.162l-2.22-2.22a.555.555 0 1 1 .786-.785l2.22 2.22a.554.554 0 0 1-.393.947z" class="cls-1" data-name="Path 145" transform="translate(-680.25 -220.485)"/>
        </g>
        <g id="Group_147" data-name="Group 147" transform="translate(707.332 222.199)">
            <path id="Path_146" d="M704.68 224.814a.555.555 0 0 1-.393-.947l2.22-2.22a.555.555 0 1 1 .786.785l-2.22 2.22a.553.553 0 0 1-.393.162z" class="cls-1" data-name="Path 146" transform="translate(-704.125 -221.485)"/>
        </g>
        <g id="Group_148" data-name="Group 148" transform="translate(710.524 236.093)">
            <path id="Path_147" d="M710.885 235.11h-3.331a.555.555 0 1 1 0-1.11h3.331a.555.555 0 0 1 0 1.11z" class="cls-1" data-name="Path 147" transform="translate(-707 -234)"/>
        </g>
        <g id="Group_149" data-name="Group 149" transform="translate(694.982 215)">
            <path id="Path_148" d="M693.555 219.441a.555.555 0 0 1-.555-.555v-3.33a.555.555 0 0 1 1.11 0v3.33a.555.555 0 0 1-.555.555z" class="cls-1" data-name="Path 148" transform="translate(-693 -215)"/>
        </g>
        <g id="Group_150" data-name="Group 150" transform="translate(682.771 222.771)">
            <path id="Path_149" d="M705.2 234.1a11.1 11.1 0 1 0-17.742 8.881h-.02v6.661h13.322v-6.661h-.02a11.073 11.073 0 0 0 4.46-8.881z" class="cls-2" data-name="Path 149" transform="translate(-681.89 -221.89)"/>
            <path id="Path_150" d="M700.872 250.864h-13.321a1.11 1.11 0 0 1-1.11-1.11v-6.137a12.212 12.212 0 1 1 15.541 0v6.137a1.111 1.111 0 0 1-1.11 1.111zm-12.211-2.22h11.1v-5.4a1.1 1.1 0 0 1 .424-1.041 9.991 9.991 0 1 0-11.949 0 1.109 1.109 0 0 1 .424 1.1z" class="cls-1" data-name="Path 150" transform="translate(-682 -222)"/>
        </g>
        <g id="Group_151" data-name="Group 151" transform="translate(691.652 230.971)">
            <path id="Path_151" d="M696.591 233.7l-4.99-3.678a.691.691 0 0 0-1.1.556v7.356a.691.691 0 0 0 1.1.556l4.99-3.678a.692.692 0 0 0 0-1.112z" class="cls-2" data-name="Path 151" transform="translate(-689.945 -229.332)"/>
            <path id="Path_152" d="M691.248 239.236a1.247 1.247 0 0 1-1.248-1.247v-7.356a1.246 1.246 0 0 1 1.986-1l4.99 3.677a1.247 1.247 0 0 1 0 2.007l-4.989 3.678a1.248 1.248 0 0 1-.739.241zm0-8.739a.14.14 0 0 0-.063.016.13.13 0 0 0-.074.121v7.356a.136.136 0 0 0 .218.109l4.989-3.677a.137.137 0 0 0 0-.22l-4.99-3.677a.127.127 0 0 0-.08-.025z" class="cls-1" data-name="Path 152" transform="translate(-690 -229.387)"/>
        </g>
        <g id="Group_152" data-name="Group 152" transform="translate(688.322 252.855)">
            <path id="Path_153" d="M699.211 252.22h-11.1a1.11 1.11 0 0 1 0-2.22h11.1a1.11 1.11 0 0 1 0 2.22z" class="cls-1" data-name="Path 153" transform="translate(-687 -250)"/>
        </g>
        <g id="Group_153" data-name="Group 153" transform="translate(689.432 256.295)">
            <path id="Path_154" d="M697.991 256.22h-8.881a1.11 1.11 0 0 1 0-2.22h8.881a1.11 1.11 0 0 1 0 2.22z" class="cls-1" data-name="Path 154" transform="translate(-688 -254)"/>
        </g>
    </g>
</svg>
