<svg xmlns="http://www.w3.org/2000/svg" id="_002-support" width="31.188" height="35.359" data-name="002-support" viewBox="0 0 31.188 35.359">
    <defs>
        <style>
            .cls-1{fill:#20a5d3}.cls-2{fill:#ccc}.cls-3{fill:#e6e6e6}.cls-4{fill:#fff}.cls-5{fill:#42444c}.cls-6{fill:#e53333}.cls-7{fill:#ff4a4a}
        </style>
    </defs>
    <path id="Path_48" d="M53.652 15.6a.544.544 0 0 1-.544-.544v-1.3a12.662 12.662 0 0 0-25.325 0v1.3a.544.544 0 0 1-1.088 0v-1.3a13.75 13.75 0 0 1 27.5 0v1.3a.544.544 0 0 1-.543.544zm0 0" class="cls-1" data-name="Path 48" transform="translate(-24.852)"/>
    <path id="Path_49" d="M382.651 318.173h-1.38a.544.544 0 1 1 0-1.088h1.38a.635.635 0 0 0 .635-.634v-2.883a.544.544 0 1 1 1.088 0v2.883a1.724 1.724 0 0 1-1.723 1.722zm0 0" class="cls-1" data-name="Path 49" transform="translate(-354.433 -291.406)"/>
    <path id="Path_50" d="M170.941 392.445h7.465v6.4h-7.465zm0 0" class="cls-2" data-name="Path 50" transform="translate(-159.136 -365.343)"/>
    <path id="Path_51" d="M84.435 143.669a5.405 5.405 0 0 0 .159-1.3v-9.211a5.4 5.4 0 0 0-5.4-5.4H67.369a5.4 5.4 0 0 0-5.4 5.4v9.211a5.4 5.4 0 0 0 5.4 5.4h11.822a5.385 5.385 0 0 0 3.561-1.339" class="cls-3" data-name="Path 51" transform="translate(-57.685 -118.927)"/>
    <path id="Path_52" d="M66.174 298.544v3.182a5.405 5.405 0 0 1-4.209-5.271v-3.183a5.4 5.4 0 0 1 4.209 5.272zm0 0" class="cls-2" data-name="Path 52" transform="translate(-57.685 -273.02)"/>
    <path id="Path_53" d="M332.9 293.273v3.183a5.408 5.408 0 0 1-.159 1.3l-1.684 2.76a5.386 5.386 0 0 1-2.366 1.206v-3.183a5.4 5.4 0 0 1 4.209-5.266zm0 0" class="cls-2" data-name="Path 53" transform="translate(-305.992 -273.02)"/>
    <path id="Path_54" d="M109.5 198.966a3.481 3.481 0 1 1-3.481-3.482 3.481 3.481 0 0 1 3.481 3.482zm0 0" class="cls-4" data-name="Path 54" transform="translate(-95.454 -181.984)"/>
    <path id="Path_55" d="M255.209 198.966a3.481 3.481 0 1 1-3.481-3.482 3.481 3.481 0 0 1 3.481 3.482zm0 0" class="cls-4" data-name="Path 55" transform="translate(-231.102 -181.984)"/>
    <path id="Path_56" d="M135.348 229.6a1.305 1.305 0 1 1 1.305-1.305 1.307 1.307 0 0 1-1.305 1.305zm0 0" class="cls-5" data-name="Path 56" transform="translate(-124.786 -211.316)"/>
    <path id="Path_57" d="M281.059 229.6a1.305 1.305 0 1 1 1.305-1.305 1.307 1.307 0 0 1-1.305 1.305zm0 0" class="cls-5" data-name="Path 57" transform="translate(-260.434 -211.316)"/>
    <path id="Path_62" d="M4.279 209.264v5.336a1.791 1.791 0 0 1-1.305 1.724 1.765 1.765 0 0 1-.486.067h-.7A1.792 1.792 0 0 1 0 214.6v-5.338a1.792 1.792 0 0 1 1.792-1.792h.7a1.765 1.765 0 0 1 .486.067 1.79 1.79 0 0 1 1.301 1.727zm0 0" class="cls-6" data-name="Path 62" transform="translate(0 -193.144)"/>
    <path id="Path_63" d="M26.767 210.173v5.338a1.791 1.791 0 0 1-1.305 1.724 1.791 1.791 0 0 1-1.306-1.724v-5.338a1.79 1.79 0 0 1 1.306-1.724 1.79 1.79 0 0 1 1.305 1.724zm0 0" class="cls-7" data-name="Path 63" transform="translate(-22.488 -194.053)"/>
    <path id="Path_64" d="M393.912 209.264v5.336a1.791 1.791 0 0 1-1.306 1.724 1.762 1.762 0 0 1-.486.067h-.7a1.792 1.792 0 0 1-1.792-1.792v-5.338a1.792 1.792 0 0 1 1.792-1.792h.7a1.762 1.762 0 0 1 .486.067 1.79 1.79 0 0 1 1.306 1.728zm0 0" class="cls-6" data-name="Path 64" transform="translate(-362.724 -193.144)"/>
    <path id="Path_65" d="M416.4 210.173v5.338a1.356 1.356 0 1 1-2.611 0v-5.338a1.356 1.356 0 1 1 2.611 0zm0 0" class="cls-7" data-name="Path 65" transform="translate(-385.212 -194.053)"/>
    <path id="Path_66" d="M354.422 357.66h.508a1.523 1.523 0 0 1 0 3.047h-.508a1.523 1.523 0 0 1 0-3.047zm0 0" class="cls-5" data-name="Path 66" transform="translate(-328.527 -332.96)"/>
    <path id="Path_67" d="M89.2 463.5v.111H67.438v-.111a3.479 3.479 0 0 1 3.479-3.479h14.8A3.479 3.479 0 0 1 89.2 463.5zm0 0" class="cls-2" data-name="Path 67" transform="translate(-62.78 -428.254)"/>
    <path id="Path_68" d="M143.462 463.5v.111h-17.735v-.111a3.479 3.479 0 0 1 3.479-3.479h10.778a3.479 3.479 0 0 1 3.478 3.479zm0 0" class="cls-3" data-name="Path 68" transform="translate(-117.044 -428.254)"/>
</svg>
