<svg xmlns="http://www.w3.org/2000/svg" width="110.087" height="118.289" viewBox="0 0 110.087 118.289">
    <defs>
        <style>
            .cls-1{fill:#fff}
        </style>
    </defs>
    <g id="swipe" transform="translate(-.12)">
        <path id="Path_108" d="M141.616 40.908h-.18a9.83 9.83 0 0 0-6.717 2.687 10.251 10.251 0 0 0-9.592-7.107 9.932 9.932 0 0 0-7.185 3.21 10.091 10.091 0 0 0-9.1-5.894h-.192a9.135 9.135 0 0 0-6.042 2.038V10.755C102.6 4.824 98 0 92.391 0S82.2 4.82 82.2 10.747l-.044 49.614-3.01-3.661a13.939 13.939 0 0 0-9.846-5.17 13.719 13.719 0 0 0-10.274 3.636L56.6 57.178a2.03 2.03 0 0 0-.505 2.5l23.585 45.278a24.138 24.138 0 0 0 21.3 13.333h26.45c13.414 0 24.338-11.594 24.352-25.884.006-6.384.013-11.133.017-15 .014-10.415.019-14.309-.008-25.773-.014-5.917-4.577-10.724-10.175-10.724zm6.124 36.505c0 3.868-.011 8.6-.017 14.988-.012 12.053-9.115 21.829-20.293 21.829h-26.452a20.1 20.1 0 0 1-17.7-11.146L60.451 59.242l1.2-.989c.026-.022.053-.041.077-.064a9.686 9.686 0 0 1 7.282-2.61A9.913 9.913 0 0 1 76 59.28l6.6 8.034a2.03 2.03 0 0 0 3.6-1.287l.039-55.276a6.172 6.172 0 1 1 12.3 0V58.835a2.03 2.03 0 0 0 4.059 0V44.156a6.15 6.15 0 0 1 6.042-6.293h.192a6.387 6.387 0 0 1 6.2 6.574v13.038a2.03 2.03 0 1 0 4.059 0V47.244c0-3.692 2.708-6.7 6.1-6.7 3.373 0 6.079 3 6.079 6.7V56.9a2.03 2.03 0 0 0 4.059 0v-5.23c0-3.693 2.733-6.7 6.106-6.7h.18c3.364 0 6.108 3 6.116 6.68.028 11.45.023 15.35.009 25.763zm0 0" class="cls-1" data-name="Path 108" transform="translate(-41.603)"/>
        <path id="Path_109" d="M262.1 43.435h26.305l-4.716 4.716a2.029 2.029 0 1 0 2.87 2.869l8.151-8.15a2.029 2.029 0 0 0 0-2.87l-8.151-8.15a2.029 2.029 0 0 0-2.87 2.87l4.656 4.656H262.1a2.03 2.03 0 0 0 0 4.059zm0 0" class="cls-1" data-name="Path 109" transform="translate(-194.002 -23.332)"/>
        <path id="Path_110" d="M7.019 43.435h26.072a2.03 2.03 0 1 0 0-4.059H7.08l4.656-4.656a2.029 2.029 0 0 0-2.87-2.87L.714 40a2.031 2.031 0 0 0 0 2.87l8.151 8.15a2.029 2.029 0 1 0 2.87-2.87zm0 0" class="cls-1" data-name="Path 110" transform="translate(0 -23.332)"/>
    </g>
</svg>
