<?xml version="1.0" encoding="UTF-8" standalone="no"?>
<!DOCTYPE svg PUBLIC "-//W3C//DTD SVG 1.1//EN" "http://www.w3.org/Graphics/SVG/1.1/DTD/svg11.dtd">
<svg version="1.1" xmlns="http://www.w3.org/2000/svg" xmlns:xlink="http://www.w3.org/1999/xlink" preserveAspectRatio="xMidYMid meet" viewBox="0 0 640 640" width="640" height="640"><defs><path d="M274.26 129.92L276.03 130.11L277.77 130.37L279.5 130.71L281.2 131.11L282.88 131.59L284.53 132.13L286.15 132.74L287.74 133.42L289.3 134.15L290.83 134.95L292.33 135.81L293.79 136.72L295.21 137.7L296.6 138.73L297.95 139.81L299.25 140.94L300.52 142.13L301.74 143.37L302.91 144.65L304.04 145.98L305.12 147.36L306.15 148.77L307.13 150.23L308.05 151.74L308.92 153.28L309.74 154.85L310.5 156.47L311.2 158.11L311.85 159.79L312.43 161.51L312.95 163.25L313.4 165.02L313.79 166.82L314.11 168.64L314.36 170.49L314.55 172.36L314.66 174.25L314.7 176.16L314.7 284.37L315.25 283.93L315.81 283.49L316.38 283.07L316.96 282.66L317.54 282.26L318.13 281.88L318.72 281.5L319.32 281.13L319.93 280.78L320.54 280.44L321.15 280.1L321.78 279.78L322.4 279.47L323.04 279.17L323.67 278.89L324.31 278.61L324.96 278.35L325.61 278.09L326.27 277.85L326.93 277.62L327.59 277.41L328.26 277.2L328.93 277.01L329.6 276.83L330.28 276.66L330.96 276.5L331.65 276.35L332.33 276.22L333.02 276.1L333.71 275.99L334.41 275.89L335.1 275.8L335.8 275.73L336.5 275.67L337.21 275.62L337.91 275.59L338.62 275.57L339.32 275.56L340.03 275.56L340.74 275.58L341.57 275.58L342.83 275.6L344.09 275.67L345.34 275.77L346.58 275.9L347.81 276.08L349.04 276.28L350.25 276.52L351.46 276.79L352.65 277.1L353.83 277.44L355 277.81L356.16 278.22L357.3 278.65L358.43 279.12L359.55 279.62L360.65 280.15L361.73 280.71L362.79 281.3L363.84 281.92L364.87 282.57L365.89 283.25L366.88 283.95L367.85 284.68L368.81 285.44L369.74 286.23L370.65 287.04L371.54 287.88L372.41 288.75L373.25 289.64L374.07 290.56L374.86 291.5L375.63 292.46L376.37 293.45L377.08 294.46L377.77 295.5L378.43 296.55L379.06 297.63L379.67 298.73L380.24 299.86L380.78 301L381.39 300.36L382 299.72L382.63 299.11L383.27 298.51L383.92 297.92L384.58 297.34L385.25 296.78L385.93 296.24L386.63 295.71L387.33 295.19L388.04 294.69L388.76 294.21L389.49 293.74L390.23 293.28L390.98 292.84L391.73 292.42L392.5 292.01L393.27 291.62L394.05 291.24L394.84 290.88L395.63 290.53L396.43 290.2L397.24 289.89L398.05 289.59L398.87 289.31L399.7 289.05L400.53 288.8L401.37 288.57L402.21 288.36L403.06 288.16L403.91 287.98L404.77 287.82L405.63 287.67L406.49 287.55L407.36 287.44L408.23 287.34L409.11 287.27L409.98 287.21L410.86 287.17L411.75 287.15L413.16 287.2L414.57 287.29L415.96 287.42L417.34 287.6L418.72 287.82L420.07 288.08L421.42 288.38L422.75 288.73L424.07 289.11L425.37 289.54L426.65 290L427.92 290.5L429.17 291.04L430.4 291.62L431.61 292.24L432.8 292.89L433.97 293.57L435.11 294.29L436.23 295.05L437.33 295.84L438.41 296.66L439.46 297.52L440.48 298.4L441.48 299.32L442.44 300.27L443.38 301.25L444.29 302.26L445.17 303.3L446.02 304.36L446.84 305.46L447.62 306.58L448.37 307.73L449.09 308.9L449.77 310.1L450.42 311.33L451.03 312.58L451.6 313.85L452.13 315.15L452.63 316.47L453.08 317.81L453.68 317.26L454.28 316.72L454.89 316.2L455.51 315.69L456.13 315.19L456.77 314.7L457.41 314.23L458.07 313.76L458.73 313.32L459.39 312.88L460.07 312.46L460.75 312.05L461.44 311.65L462.14 311.27L462.84 310.9L463.55 310.54L464.27 310.2L464.99 309.87L465.72 309.55L466.45 309.25L467.19 308.96L467.94 308.69L468.69 308.43L469.44 308.18L470.2 307.95L470.97 307.73L471.74 307.53L472.51 307.34L473.28 307.17L474.06 307.01L474.85 306.86L475.64 306.73L476.43 306.61L477.22 306.51L478.02 306.43L478.81 306.35L479.62 306.3L480.42 306.26L481.22 306.23L482.03 306.22L482.81 306.22L484.61 306.26L486.39 306.37L488.15 306.56L489.9 306.83L491.61 307.16L493.31 307.57L494.98 308.04L496.63 308.58L498.24 309.19L499.83 309.86L501.38 310.59L502.91 311.39L504.4 312.24L505.85 313.16L507.27 314.13L508.65 315.15L509.99 316.23L511.29 317.36L512.54 318.55L513.76 319.78L514.92 321.06L516.05 322.38L517.12 323.75L518.14 325.17L519.12 326.62L520.04 328.12L520.91 329.66L521.72 331.23L522.47 332.84L523.17 334.48L523.81 336.16L524.39 337.87L524.9 339.6L525.36 341.37L525.74 343.16L526.07 344.98L526.32 346.82L526.5 348.69L526.62 350.57L526.66 352.48L526.66 356.13L526.67 359.66L526.68 363.08L526.69 366.39L526.69 369.61L526.7 372.73L526.71 375.76L526.71 378.71L526.72 381.59L526.72 384.39L526.72 387.13L526.73 389.81L526.73 392.43L526.73 395.01L526.73 397.54L526.74 400.03L526.74 402.5L526.74 404.94L526.74 407.35L526.74 409.76L526.74 412.16L526.74 414.55L526.74 416.95L526.74 419.35L526.74 421.77L526.74 424.21L526.73 426.67L526.73 429.17L526.73 431.7L526.73 434.28L526.72 436.9L526.72 439.58L526.72 442.32L526.72 445.13L526.71 448L526.71 450.95L526.7 453.99L526.7 457.11L526.7 460.33L526.69 463.65L526.69 464.91L526.69 466.18L526.69 467.47L526.69 468.77L526.68 470.09L526.68 471.42L526.68 472.77L526.68 474.14L526.68 475.52L526.68 476.92L526.67 478.34L526.67 479.78L526.67 481.23L526.67 482.7L526.67 484.19L526.67 485.7L526.66 487.23L526.66 488.77L526.66 490.34L526.66 491.93L526.66 493.54L526.65 495.16L526.65 496.81L526.65 498.48L526.65 500.17L526.65 501.89L526.64 503.62L526.64 505.38L526.64 507.16L526.64 508.97L526.64 510.8L526.63 512.65L526.63 514.52L526.63 516.42L526.63 518.35L526.63 520.3L526.62 522.27L526.62 524.27L526.62 526.3L526.62 528.35L526.53 532.95L526.26 537.5L525.83 542.01L525.23 546.45L524.46 550.84L523.54 555.17L522.46 559.44L521.23 563.63L519.85 567.75L518.32 571.8L516.66 575.77L514.85 579.65L512.91 583.45L510.83 587.15L508.63 590.76L506.3 594.28L503.85 597.69L501.28 601L498.6 604.2L495.8 607.29L492.9 610.26L489.89 613.12L486.78 615.85L483.57 618.45L480.27 620.93L476.87 623.27L473.39 625.47L469.82 627.53L466.17 629.45L462.45 631.22L458.65 632.84L454.78 634.31L450.84 635.61L446.84 636.75L442.78 637.73L438.66 638.54L434.48 639.17L430.26 639.63L425.99 639.91L421.67 640L307.68 640L304.77 639.92L301.87 639.77L298.99 639.53L296.12 639.22L293.27 638.83L290.45 638.36L287.64 637.81L284.86 637.19L282.1 636.49L279.36 635.72L276.66 634.88L273.98 633.96L271.33 632.98L268.71 631.92L266.12 630.79L263.57 629.6L261.05 628.33L258.57 627L256.13 625.6L253.72 624.14L251.35 622.62L249.03 621.03L246.75 619.37L244.52 617.66L242.33 615.88L240.18 614.05L238.09 612.15L236.04 610.2L234.05 608.18L232.11 606.12L230.22 603.99L228.39 601.81L226.62 599.58L224.9 597.29L223.24 594.95L221.64 592.56L220.11 590.11L218.64 587.62L217.23 585.08L215.89 582.49L114.25 387.18L114.11 386.91L113.98 386.63L113.87 386.35L113.76 386.06L113.67 385.78L113.58 385.49L113.51 385.2L113.44 384.91L113.38 384.62L113.34 384.32L113.31 384.03L113.28 383.74L113.27 383.44L113.26 383.15L113.26 382.86L113.28 382.56L113.3 382.27L113.34 381.98L113.38 381.69L113.43 381.41L113.5 381.12L113.57 380.84L113.65 380.56L113.74 380.28L113.84 380L113.95 379.73L114.07 379.46L114.2 379.2L114.33 378.94L114.48 378.68L114.63 378.43L114.8 378.18L114.97 377.94L115.15 377.7L115.34 377.47L115.54 377.24L115.75 377.02L115.97 376.81L116.19 376.6L116.43 376.4L126.88 367.72L127.78 366.9L128.7 366.09L129.64 365.31L130.59 364.55L131.55 363.81L132.52 363.09L133.51 362.39L134.51 361.71L135.53 361.06L136.55 360.42L137.59 359.81L138.64 359.22L139.7 358.65L140.77 358.1L141.85 357.58L142.94 357.07L144.04 356.59L145.15 356.14L146.27 355.7L147.4 355.29L148.53 354.9L149.67 354.53L150.82 354.19L151.98 353.87L153.14 353.58L154.31 353.3L155.49 353.06L156.67 352.83L157.86 352.63L159.05 352.45L160.24 352.3L161.45 352.17L162.65 352.07L163.86 351.99L165.07 351.93L166.28 351.9L167.5 351.9L168.72 351.92L169.94 351.97L171.16 352.04L172.4 352.14L173.64 352.27L174.87 352.43L176.1 352.61L177.32 352.81L178.54 353.04L179.75 353.3L180.95 353.58L182.14 353.88L183.33 354.21L184.51 354.56L185.68 354.93L186.84 355.33L187.99 355.76L189.13 356.2L190.27 356.67L191.39 357.16L192.5 357.67L193.6 358.21L194.69 358.77L195.77 359.35L196.83 359.95L197.89 360.58L198.93 361.22L199.96 361.89L200.97 362.58L201.97 363.29L202.96 364.02L203.93 364.77L204.89 365.54L205.83 366.33L206.76 367.14L207.67 367.97L208.57 368.83L209.45 369.7L210.31 370.59L211.16 371.5L211.99 372.42L212.8 373.37L213.59 374.34L226.56 390.13L226.75 176.12L226.79 174.21L226.9 172.32L227.08 170.46L227.33 168.61L227.65 166.79L228.03 164.99L228.48 163.22L229 161.48L229.57 159.77L230.21 158.09L230.91 156.45L231.67 154.83L232.48 153.26L233.35 151.72L234.27 150.22L235.25 148.76L236.27 147.34L237.35 145.97L238.47 144.64L239.64 143.36L240.86 142.12L242.12 140.94L243.42 139.8L244.77 138.72L246.15 137.69L247.57 136.72L249.03 135.8L250.52 134.95L252.05 134.15L253.61 133.41L255.2 132.74L256.82 132.13L258.47 131.59L260.14 131.11L261.84 130.71L263.56 130.37L265.31 130.11L267.08 129.92L268.86 129.8L270.67 129.76L272.47 129.8L274.26 129.92ZM268.42 147.36L267.33 147.48L266.25 147.64L265.19 147.84L264.15 148.08L263.12 148.36L262.11 148.68L261.12 149.03L260.15 149.43L259.2 149.86L258.28 150.32L257.37 150.82L256.49 151.36L255.63 151.92L254.79 152.52L253.98 153.15L253.2 153.81L252.44 154.5L251.71 155.21L251.01 155.95L250.33 156.72L249.69 157.52L249.08 158.33L248.49 159.17L247.94 160.04L247.43 160.92L246.95 161.83L246.5 162.75L246.08 163.7L245.71 164.66L245.37 165.64L245.06 166.63L244.8 167.64L244.57 168.66L244.39 169.7L244.24 170.75L244.14 171.81L244.08 172.88L244.06 173.95L244.09 175.04L244.16 176.14L243.99 414.57L243.99 414.77L243.98 414.96L243.97 415.16L243.95 415.35L243.93 415.55L243.91 415.74L243.88 415.93L243.85 416.12L243.81 416.31L243.77 416.5L243.73 416.69L243.68 416.88L243.63 417.06L243.57 417.24L243.51 417.43L243.44 417.61L243.38 417.79L243.3 417.97L243.23 418.14L243.15 418.32L243.06 418.49L242.98 418.66L242.88 418.83L242.79 419L242.69 419.16L242.59 419.32L242.48 419.48L242.37 419.64L242.26 419.8L242.14 419.95L242.02 420.1L241.9 420.25L241.77 420.4L241.64 420.54L241.51 420.68L241.37 420.82L241.23 420.95L241.08 421.09L240.94 421.22L240.79 421.34L240.5 421.57L240.21 421.78L239.92 421.97L239.62 422.15L239.31 422.32L239 422.48L238.68 422.62L238.36 422.75L238.04 422.87L237.72 422.97L237.39 423.06L237.06 423.14L236.72 423.2L236.39 423.25L236.06 423.29L235.72 423.31L235.38 423.33L235.05 423.32L234.71 423.31L234.38 423.28L234.04 423.24L233.71 423.19L233.38 423.13L233.05 423.05L232.73 422.96L232.41 422.86L232.09 422.74L231.78 422.61L231.47 422.47L231.16 422.32L230.86 422.16L230.57 421.98L230.28 421.79L230 421.59L229.73 421.37L229.46 421.15L229.2 420.91L228.95 420.66L228.71 420.4L228.47 420.12L200.03 385.47L199.47 384.78L198.9 384.1L198.31 383.44L197.71 382.79L197.1 382.16L196.47 381.53L195.84 380.93L195.19 380.33L194.54 379.75L193.87 379.19L193.19 378.64L192.5 378.1L191.8 377.58L191.09 377.07L190.37 376.58L189.64 376.1L188.9 375.64L188.15 375.19L187.39 374.76L186.63 374.35L185.85 373.95L185.07 373.56L184.28 373.19L183.49 372.84L182.68 372.51L181.87 372.19L181.05 371.88L180.23 371.6L179.4 371.33L178.56 371.08L177.72 370.84L176.87 370.62L176.01 370.42L175.16 370.24L174.29 370.07L173.42 369.92L172.55 369.79L171.67 369.67L170.79 369.58L169.91 369.5L169.04 369.45L168.17 369.42L167.31 369.41L166.44 369.42L165.58 369.44L164.72 369.48L163.87 369.54L163.01 369.61L162.16 369.71L161.31 369.82L160.46 369.95L159.62 370.09L158.78 370.25L157.95 370.43L157.12 370.63L156.29 370.84L155.47 371.07L154.66 371.32L153.85 371.58L153.04 371.86L152.25 372.16L151.45 372.47L150.67 372.8L149.89 373.14L149.11 373.5L148.35 373.88L147.59 374.27L146.84 374.68L146.1 375.1L145.36 375.54L144.64 375.99L143.92 376.46L143.21 376.95L142.51 377.45L141.82 377.96L141.14 378.49L140.47 379.04L139.81 379.6L139.16 380.17L138.52 380.76L138.52 380.77L138.5 380.78L138.49 380.79L138.49 380.8L138.48 380.8L138.47 380.81L138.46 380.82L138.45 380.83L138.44 380.84L138.42 380.85L138.4 380.87L138.39 380.88L138.37 380.89L138.35 380.91L138.34 380.92L138.31 380.94L138.28 380.97L138.25 380.99L138.23 381L138.22 381.02L138.21 381.02L138.19 381.04L133.02 385.3L231.4 574.41L232.51 576.57L233.67 578.69L234.89 580.77L236.16 582.81L237.49 584.8L238.86 586.75L240.29 588.66L241.76 590.52L243.28 592.34L244.85 594.11L246.46 595.84L248.11 597.52L249.81 599.15L251.55 600.73L253.33 602.27L255.15 603.75L257.01 605.18L258.9 606.56L260.83 607.89L262.79 609.17L264.79 610.39L266.82 611.56L268.89 612.67L270.98 613.73L273.1 614.73L275.25 615.67L277.43 616.56L279.63 617.39L281.86 618.15L284.11 618.86L286.39 619.51L288.68 620.1L291 620.62L293.33 621.08L295.68 621.48L298.05 621.81L300.44 622.08L302.84 622.29L305.25 622.42L307.67 622.49L421.67 622.49L425.27 622.41L428.83 622.18L432.35 621.79L435.82 621.26L439.26 620.58L442.64 619.75L445.98 618.79L449.26 617.69L452.48 616.46L455.65 615.09L458.76 613.6L461.8 611.98L464.77 610.24L467.67 608.38L470.5 606.41L473.25 604.32L475.92 602.12L478.52 599.82L481.02 597.42L483.44 594.91L485.77 592.3L488.01 589.61L490.15 586.82L492.19 583.94L494.13 580.97L495.97 577.93L497.7 574.8L499.32 571.6L500.82 568.32L502.21 564.98L503.48 561.57L504.63 558.09L505.66 554.55L506.56 550.96L507.33 547.31L507.96 543.6L508.47 539.85L508.83 536.05L509.05 532.21L509.13 528.33L509.13 526.28L509.13 524.25L509.13 522.25L509.13 520.28L509.14 518.33L509.14 516.4L509.14 514.5L509.14 512.63L509.15 510.78L509.15 508.95L509.15 507.15L509.15 505.37L509.15 503.61L509.16 501.88L509.16 500.17L509.16 498.48L509.16 496.81L509.17 495.16L509.17 493.54L509.17 491.93L509.17 490.35L509.18 488.78L509.18 487.24L509.18 485.71L509.18 484.21L509.18 482.72L509.19 481.25L509.19 479.8L509.19 478.36L509.19 476.95L509.19 475.55L509.19 474.17L509.19 472.8L509.2 471.45L509.2 470.12L509.2 468.8L509.2 467.5L509.2 466.21L509.2 464.94L509.2 463.68L509.2 460.37L509.21 457.15L509.21 454.02L509.22 450.99L509.22 448.04L509.22 445.16L509.23 442.36L509.23 439.62L509.23 436.94L509.23 434.32L509.24 431.74L509.24 429.21L509.24 426.71L509.24 424.24L509.24 421.81L509.25 419.39L509.25 416.98L509.25 414.59L509.25 412.19L509.25 409.8L509.25 407.39L509.25 404.97L509.24 402.54L509.24 400.07L509.24 397.58L509.24 395.05L509.24 392.47L509.23 389.85L509.23 387.17L509.23 384.44L509.22 381.64L509.22 378.77L509.21 375.82L509.2 372.79L509.2 369.67L509.19 366.46L509.18 363.14L509.18 359.73L509.17 356.2L509.16 352.55L509.14 351.37L509.07 350.2L508.96 349.04L508.8 347.89L508.61 346.76L508.38 345.64L508.11 344.54L507.8 343.46L507.45 342.4L507.07 341.36L506.65 340.33L506.19 339.33L505.7 338.35L505.18 337.39L504.63 336.46L504.04 335.55L503.43 334.67L502.78 333.82L502.11 332.99L501.4 332.2L500.68 331.43L499.92 330.69L499.14 329.98L498.33 329.31L497.5 328.67L496.65 328.07L495.78 327.5L494.88 326.96L493.97 326.47L493.03 326.01L492.08 325.59L491.11 325.21L490.12 324.88L489.12 324.58L488.1 324.33L487.06 324.12L486.02 323.95L484.96 323.84L483.88 323.76L482.8 323.74L482.03 323.74L480.94 323.76L479.87 323.84L478.81 323.96L477.76 324.12L476.72 324.33L475.7 324.58L474.7 324.88L473.71 325.22L472.74 325.6L471.78 326.02L470.85 326.48L469.93 326.97L469.04 327.51L468.16 328.08L467.31 328.68L466.48 329.33L465.68 330L464.9 330.71L464.15 331.45L463.42 332.22L462.72 333.02L462.05 333.85L461.4 334.7L460.79 335.59L460.21 336.5L459.65 337.43L459.13 338.39L458.65 339.37L458.2 340.38L457.78 341.4L457.4 342.45L457.05 343.52L456.75 344.6L456.48 345.71L456.25 346.83L456.06 347.96L455.91 349.11L455.8 350.27L455.73 351.45L455.71 352.64L455.71 375.2L455.7 375.55L455.67 375.9L455.63 376.24L455.57 376.58L455.51 376.91L455.43 377.24L455.34 377.56L455.23 377.88L455.12 378.19L454.99 378.5L454.85 378.8L454.7 379.1L454.54 379.38L454.37 379.67L454.19 379.94L454 380.21L453.81 380.47L453.6 380.72L453.38 380.96L453.15 381.2L452.92 381.42L452.67 381.64L452.42 381.85L452.16 382.05L451.9 382.24L451.62 382.42L451.34 382.59L451.05 382.75L450.76 382.9L450.46 383.04L450.15 383.16L449.84 383.28L449.52 383.38L449.2 383.48L448.87 383.55L448.53 383.62L448.2 383.68L447.86 383.72L447.51 383.75L447.16 383.76L446.8 383.76L446.44 383.75L446.09 383.72L445.74 383.68L445.39 383.62L445.05 383.55L444.72 383.47L444.39 383.38L444.06 383.27L443.74 383.15L443.43 383.02L443.12 382.87L442.82 382.72L442.52 382.55L442.24 382.37L441.96 382.19L441.69 381.99L441.42 381.78L441.17 381.56L440.92 381.33L440.68 381.1L440.45 380.85L440.23 380.6L440.02 380.33L439.82 380.06L439.63 379.78L439.45 379.5L439.29 379.2L439.13 378.9L438.98 378.59L438.85 378.28L438.73 377.96L438.62 377.63L438.52 377.3L438.44 376.96L438.37 376.62L438.31 376.27L438.26 375.92L438.24 375.56L438.22 375.2L438.22 333.55L438.2 332.36L438.13 331.18L438.03 330.01L437.88 328.86L437.69 327.73L437.46 326.6L437.2 325.5L436.89 324.42L436.55 323.35L436.17 322.3L435.76 321.27L435.31 320.27L434.83 319.29L434.31 318.33L433.76 317.39L433.18 316.48L432.58 315.6L431.94 314.74L431.27 313.91L430.57 313.11L429.85 312.35L429.1 311.61L428.32 310.9L427.52 310.23L426.7 309.59L425.85 308.98L424.98 308.41L424.09 307.88L423.18 307.38L422.25 306.92L421.3 306.5L420.33 306.12L419.34 305.79L418.34 305.49L417.32 305.24L416.29 305.03L415.24 304.86L414.18 304.75L413.11 304.67L412.02 304.65L410.93 304.67L409.85 304.75L408.79 304.86L407.73 305.03L406.7 305.24L405.67 305.49L404.67 305.79L403.67 306.13L402.7 306.51L401.75 306.93L400.81 307.38L399.9 307.88L399 308.42L398.13 308.99L397.28 309.59L396.45 310.24L395.65 310.91L394.87 311.62L394.12 312.36L393.4 313.13L392.7 313.93L392.03 314.76L391.39 315.61L390.78 316.5L390.2 317.41L389.65 318.34L389.13 319.3L388.65 320.28L388.2 321.29L387.79 322.32L387.41 323.36L387.06 324.43L386.76 325.51L386.49 326.62L386.26 327.74L386.08 328.87L385.93 330.02L385.82 331.18L385.76 332.36L385.73 333.55L385.73 377.68L385.73 377.69L385.73 377.73L385.74 377.75L385.74 377.78L385.74 377.82L385.74 377.86L385.74 377.91L385.74 377.93L385.74 377.97L385.73 378.01L385.73 378.03L385.73 378.06L385.73 378.07L385.72 378.43L385.69 378.79L385.65 379.14L385.59 379.49L385.52 379.83L385.43 380.17L385.34 380.5L385.23 380.83L385.1 381.15L384.97 381.46L384.83 381.77L384.67 382.07L384.5 382.36L384.32 382.65L384.13 382.93L383.93 383.2L383.72 383.47L383.5 383.72L383.27 383.97L383.03 384.2L382.79 384.43L382.53 384.65L382.27 384.86L382 385.05L381.72 385.24L381.43 385.42L381.14 385.59L380.83 385.74L380.53 385.88L380.21 386.02L379.89 386.14L379.57 386.24L379.24 386.34L378.9 386.42L378.56 386.49L378.21 386.55L377.86 386.59L377.51 386.62L377.15 386.63L376.79 386.63L376.43 386.61L376.08 386.58L375.72 386.54L375.38 386.48L375.03 386.41L374.7 386.33L374.37 386.23L374.04 386.12L373.72 386L373.4 385.87L373.1 385.72L372.8 385.56L372.5 385.39L372.22 385.22L371.94 385.03L371.67 384.83L371.4 384.62L371.15 384.4L370.9 384.17L370.67 383.93L370.44 383.68L370.22 383.42L370.01 383.16L369.81 382.89L369.63 382.61L369.45 382.32L369.28 382.03L369.13 381.73L368.98 381.42L368.85 381.1L368.73 380.78L368.63 380.46L368.53 380.13L368.45 379.79L368.38 379.45L368.32 379.1L368.28 378.75L368.25 378.4L368.24 378.04L368.24 377.68L368.24 321.44L368.24 321.42L368.25 320.28L368.22 319.16L368.14 318.04L368.01 316.94L367.84 315.85L367.63 314.78L367.38 313.72L367.09 312.67L366.76 311.65L366.39 310.64L365.98 309.65L365.54 308.67L365.05 307.72L364.54 306.79L363.99 305.89L363.4 305L362.78 304.14L362.14 303.3L361.46 302.5L360.74 301.71L360 300.96L359.24 300.23L358.44 299.53L357.62 298.87L356.77 298.23L355.9 297.63L355 297.06L354.08 296.52L353.13 296.02L352.17 295.56L351.18 295.13L350.18 294.74L349.15 294.39L348.11 294.08L347.05 293.8L345.97 293.57L344.88 293.39L343.78 293.24L342.66 293.14L341.52 293.08L340.69 293.08L340.67 293.09L340.61 293.09L340.58 293.09L340.53 293.09L339.44 293.14L338.36 293.23L337.3 293.36L336.24 293.54L335.21 293.75L334.18 294.01L333.18 294.3L332.19 294.64L331.22 295.01L330.27 295.41L329.34 295.86L328.43 296.33L327.54 296.84L326.67 297.39L325.82 297.96L325 298.57L324.21 299.21L323.44 299.88L322.69 300.57L321.98 301.29L321.29 302.04L320.63 302.82L320 303.62L319.4 304.45L318.83 305.3L318.3 306.17L317.8 307.06L317.33 307.97L316.9 308.91L316.5 309.86L316.14 310.83L315.81 311.82L315.52 312.82L315.28 313.84L315.07 314.87L314.9 315.92L314.78 316.98L314.69 318.05L314.65 319.14L314.66 320.23L314.66 383.55L314.64 383.9L314.61 384.24L314.57 384.58L314.52 384.92L314.45 385.26L314.37 385.58L314.28 385.91L314.18 386.23L314.06 386.54L313.93 386.85L313.8 387.15L313.65 387.44L313.49 387.73L313.32 388.01L313.14 388.29L312.95 388.55L312.75 388.81L312.54 389.07L312.32 389.31L312.1 389.54L311.86 389.77L311.62 389.99L311.37 390.2L311.11 390.4L310.84 390.59L310.56 390.77L310.28 390.94L310 391.1L309.7 391.25L309.4 391.38L309.09 391.51L308.78 391.63L308.46 391.73L308.14 391.82L307.81 391.9L307.48 391.97L307.14 392.02L306.8 392.06L306.45 392.09L306.1 392.11L305.74 392.11L305.39 392.09L305.03 392.07L304.68 392.02L304.34 391.97L304 391.9L303.66 391.82L303.33 391.72L303 391.61L302.68 391.49L302.37 391.36L302.06 391.22L301.76 391.06L301.47 390.9L301.18 390.72L300.9 390.53L300.63 390.33L300.37 390.13L300.11 389.91L299.86 389.68L299.62 389.44L299.4 389.2L299.18 388.94L298.97 388.68L298.77 388.41L298.58 388.13L298.4 387.84L298.23 387.55L298.07 387.25L297.93 386.94L297.79 386.62L297.67 386.3L297.56 385.98L297.46 385.65L297.38 385.31L297.31 384.96L297.25 384.62L297.21 384.26L297.18 383.91L297.16 383.55L297.16 176.14L297.17 176.03L297.18 175.91L297.19 175.8L297.2 175.69L297.21 175.58L297.21 175.47L297.22 175.35L297.22 175.24L297.23 175.13L297.23 175.02L297.24 174.9L297.24 174.79L297.25 174.68L297.25 174.57L297.25 174.45L297.25 174.34L297.26 174.23L297.26 174.12L297.26 174L297.26 173.89L297.26 173.78L297.26 173.67L297.26 173.56L297.25 173.44L297.25 173.33L297.25 173.22L297.25 173.11L297.24 172.99L297.24 172.88L297.23 172.77L297.23 172.66L297.22 172.54L297.22 172.43L297.21 172.32L297.21 172.21L297.2 172.1L297.19 171.98L297.18 171.87L297.17 171.76L297.16 171.65L297.05 170.55L296.89 169.48L296.69 168.42L296.45 167.37L296.17 166.35L295.85 165.34L295.5 164.35L295.1 163.38L294.67 162.43L294.21 161.5L293.71 160.59L293.17 159.71L292.61 158.85L292.01 158.01L291.38 157.2L290.72 156.41L290.04 155.65L289.32 154.92L288.58 154.22L287.81 153.55L287.02 152.9L286.2 152.29L285.36 151.71L284.5 151.16L283.62 150.64L282.71 150.16L281.79 149.71L280.85 149.29L279.89 148.92L278.91 148.57L277.92 148.27L276.91 148.01L275.89 147.78L274.85 147.6L273.8 147.45L272.74 147.35L271.68 147.29L270.6 147.27L269.51 147.29L268.42 147.36Z" id="a14DSomA06"></path><path d="M339.91 211.12C352.86 195.14 360 175.01 360 154.42C360 104.79 319.65 64.41 270.05 64.41C220.45 64.41 180.09 104.79 180.09 154.42C180.09 175.59 187.59 196.17 201.21 212.35C203.01 214.49 205.58 215.59 208.17 215.59C210.24 215.59 212.32 214.89 214.02 213.45C217.87 210.22 218.36 204.47 215.12 200.63C204.27 187.72 198.29 171.31 198.29 154.42C198.29 114.82 230.48 82.61 270.05 82.61C309.62 82.61 341.81 114.82 341.81 154.42C341.81 171.08 336.27 186.72 325.78 199.64C322.62 203.55 323.21 209.28 327.11 212.45C331.01 215.61 336.74 215.02 339.91 211.12Z" id="f4YwuDaP"></path><path d="M206.33 277.28C209.6 277.28 212.78 275.55 214.48 272.48C216.96 267.98 215.32 262.33 210.83 259.85C171.93 238.38 147.76 197.49 147.76 153.13C147.76 85.96 202.41 31.31 269.57 31.31C336.75 31.31 391.4 85.96 391.4 153.13C391.4 185.62 378.75 216.18 355.79 239.18C352.16 242.82 352.17 248.7 355.8 252.33C359.43 255.95 365.32 255.95 368.95 252.32C395.41 225.8 409.99 190.58 409.99 153.13C409.99 75.71 347 12.72 269.57 12.72C192.15 12.72 129.17 75.71 129.17 153.13C129.17 204.26 157.02 251.39 201.84 276.13C203.27 276.91 204.81 277.28 206.33 277.28Z" id="dbikFcNHG"></path></defs><g><g><g><use xlink:href="#a14DSomA06" opacity="1" fill="#ffffff" fill-opacity="1"></use><g><use xlink:href="#a14DSomA06" opacity="1" fill-opacity="0" stroke="#000000" stroke-width="1" stroke-opacity="0"></use></g></g><g><use xlink:href="#f4YwuDaP" opacity="1" fill="#ffffff" fill-opacity="1"></use><g><use xlink:href="#f4YwuDaP" opacity="1" fill-opacity="0" stroke="#000000" stroke-width="1" stroke-opacity="0"></use></g></g><g><use xlink:href="#dbikFcNHG" opacity="1" fill="#ffffff" fill-opacity="1"></use><g><use xlink:href="#dbikFcNHG" opacity="1" fill-opacity="0" stroke="#000000" stroke-width="1" stroke-opacity="0"></use></g></g></g></g></svg>