<svg xmlns="http://www.w3.org/2000/svg" width="35.779" height="42.129" viewBox="0 0 35.779 42.129"><g transform="translate(-56.114)"><g transform="translate(69.028 13.137)"><g transform="translate(0)"><path d="M201.077,160.322a.671.671,0,0,0-.671.671v.718a.671.671,0,0,0,1.342,0v-.718A.671.671,0,0,0,201.077,160.322Z" transform="translate(-200.406 -160.322)"/></g></g><g transform="translate(77.637 13.137)"><g transform="translate(0)"><path d="M297.269,160.322a.671.671,0,0,0-.671.671v.718a.671.671,0,0,0,1.342,0v-.718A.671.671,0,0,0,297.269,160.322Z" transform="translate(-296.598 -160.322)"/></g></g><g transform="translate(71.18 17.735)"><g transform="translate(0)"><path d="M229.908,216.635a.671.671,0,0,0-.949-.006,2.958,2.958,0,0,1-3.362,0,.671.671,0,0,0-.943.956,4.234,4.234,0,0,0,5.247,0A.671.671,0,0,0,229.908,216.635Z" transform="translate(-224.454 -216.435)"/></g></g><g transform="translate(68.31 11.183)"><path d="M194.5,136.274h-1.435a.671.671,0,0,0,0,1.342H194.5a.671.671,0,1,0,0-1.342Z" transform="translate(-192.39 -136.274)"/></g><g transform="translate(76.919 11.183)"><path d="M290.688,136.274h-1.435a.671.671,0,0,0,0,1.342h1.435a.671.671,0,1,0,0-1.342Z" transform="translate(-288.582 -136.274)"/></g><g transform="translate(56.114)"><g transform="translate(0)"><path d="M88.379,29.395l-4.838-1.368a1.313,1.313,0,0,0-.037-.4,1.449,1.449,0,0,0-.815-.947L79.7,25.3V23.339A9.139,9.139,0,0,0,83.9,17.064h.4a2.483,2.483,0,0,0,2.555-2.035,2.161,2.161,0,0,0-.624-1.751,2.465,2.465,0,0,0-.8-.538V5.894A4.793,4.793,0,0,0,80.46,1.319h-.113A9,9,0,0,0,75.394,0a18.34,18.34,0,0,0-8.349,1.733,30.7,30.7,0,0,1-4.17,1.48.659.659,0,0,0-.417.327.572.572,0,0,0-.014.5,5.581,5.581,0,0,0,1.094,1.463,4.773,4.773,0,0,0-.966,3.246v4.016a2.3,2.3,0,0,0-1.422,1.8,2.161,2.161,0,0,0,.624,1.752,2.572,2.572,0,0,0,1.828.746h.5a9.137,9.137,0,0,0,4.208,6.275V25.3l-2.992,1.375a1.449,1.449,0,0,0-.815.947,1.315,1.315,0,0,0-.037.4l-4.838,1.368a4.614,4.614,0,0,0-3.514,4.373v7.744a.674.674,0,0,0,1.342,0V33.767a3.369,3.369,0,0,1,2.566-3.193l5.033-1.423.888,1.089-1.009.928a1.819,1.819,0,0,0-.395,2.235l1.922,3.533h-1.83v-.7a.674.674,0,0,0-1.342,0v.7H60.372a.646.646,0,0,0-.671.617v3.958a.646.646,0,0,0,.671.617h7.174a.646.646,0,0,0,.671-.617V40.168l.881,1.619a.68.68,0,0,0,.6.341.717.717,0,0,0,.3-.065.6.6,0,0,0,.3-.828L65.74,32.852a.66.66,0,0,1,.143-.81L67.3,30.735a.581.581,0,0,0,.062-.807l-1.521-1.864a.176.176,0,0,1-.036-.158.191.191,0,0,1,.109-.127l2.644-1.215,1.866,5.883a.682.682,0,0,0,.832.42.611.611,0,0,0,.456-.765l-.294-.927a8.506,8.506,0,0,0,5.16,0L74,39.307l-1.449-4.566a.682.682,0,0,0-.832-.42.611.611,0,0,0-.456.765l2.093,6.6a.689.689,0,0,0,1.289,0l4.8-15.12,2.644,1.215a.191.191,0,0,1,.109.127.176.176,0,0,1-.036.158l-1.521,1.864a.581.581,0,0,0,.062.807l1.421,1.306a.66.66,0,0,1,.143.81l-4.56,8.384a.6.6,0,0,0,.3.828.716.716,0,0,0,.3.065.68.68,0,0,0,.6-.341L83.468,33.4a1.82,1.82,0,0,0-.394-2.235l-1.009-.928.888-1.089,5.033,1.423a3.369,3.369,0,0,1,2.566,3.193v7.744a.674.674,0,0,0,1.342,0V33.767A4.614,4.614,0,0,0,88.379,29.395Zm-21.5,11.5H61.044V38.171h2.245v.042a.674.674,0,0,0,1.342,0v-.042h2.245ZM67.6,2.857a16.943,16.943,0,0,1,7.8-1.623c2.476,0,4.689.953,5.147,2.216a.686.686,0,0,0,.849.39.607.607,0,0,0,.424-.781,2.778,2.778,0,0,0-.137-.313,3.377,3.377,0,0,1,2.416,3.147v6.638H83.33a.736.736,0,0,1-.764-.7v-.66a7.621,7.621,0,0,0-2.349-5.053.714.714,0,0,0-.677-.152c-3.726,1.082-8.98,1.994-12.848.194a7.094,7.094,0,0,1-2.617-2A34.738,34.738,0,0,0,67.6,2.857ZM78.354,25.593l-1.282,4.041a7.018,7.018,0,0,1-6.137,0l-1.282-4.042V24.062a10.774,10.774,0,0,0,8.7,0ZM74,23.745c-4.773,0-8.655-3.57-8.655-7.958a.674.674,0,0,0-1.342,0v.042h-.4a1.171,1.171,0,0,1-.833-.34.974.974,0,0,1-.284-.8,1.167,1.167,0,0,1,1.219-.923h.974a2.029,2.029,0,0,0,2.106-1.936V9.5a.674.674,0,0,0-1.342,0V11.83a.736.736,0,0,1-.764.7h-.764V8.752a3.909,3.909,0,0,1,.614-2.4,9.355,9.355,0,0,0,1.454.862,13.426,13.426,0,0,0,5.381,1.2,27.465,27.465,0,0,0,8.166-1.15,6.247,6.247,0,0,1,1.7,3.91v.66a2.029,2.029,0,0,0,2.106,1.936h1.076a1.171,1.171,0,0,1,.833.34.974.974,0,0,1,.284.8,1.167,1.167,0,0,1-1.219.923H84v-.036a.646.646,0,0,0-.671-.617h0a.646.646,0,0,0-.671.617C82.655,20.178,78.772,23.745,74,23.745Z" transform="translate(-56.114 0)"/></g></g><g transform="translate(83.376 35.047)"><g transform="translate(0)"><path d="M364.986,434.665h-1.122v-1.122a.671.671,0,0,0-1.342,0v1.122H361.4a.671.671,0,1,0,0,1.342h1.122v1.122a.671.671,0,0,0,1.342,0v-1.122h1.122a.671.671,0,0,0,0-1.342Z" transform="translate(-360.728 -432.871)"/></g></g></g></svg>